<svg width="32" height="33" viewBox="0 0 32 33" fill="none" xmlns="http://www.w3.org/2000/svg">
<g id="account_circle_24dp_E3E3E3_FILL1_wght300_GRAD0_opsz24 1">
<path id="Vector" d="M8.03083 23.557C9.16416 22.7161 10.3988 22.052 11.7348 21.5647C13.0706 21.0775 14.4924 20.834 16.0002 20.834C17.5079 20.834 18.9297 21.0775 20.2655 21.5647C21.6015 22.052 22.8362 22.7161 23.9695 23.557C24.7984 22.6459 25.4552 21.5912 25.9398 20.393C26.4245 19.1948 26.6668 17.8973 26.6668 16.5007C26.6668 13.5451 25.6279 11.0284 23.5502 8.95065C21.4724 6.87287 18.9557 5.83398 16.0002 5.83398C13.0446 5.83398 10.5279 6.87287 8.45016 8.95065C6.37239 11.0284 5.3335 13.5451 5.3335 16.5007C5.3335 17.8973 5.57583 19.1948 6.0605 20.393C6.54516 21.5912 7.20194 22.6459 8.03083 23.557ZM16.0002 17.5007C14.7831 17.5007 13.7566 17.0827 12.9208 16.2467C12.0848 15.4109 11.6668 14.3844 11.6668 13.1673C11.6668 11.9502 12.0848 10.9238 12.9208 10.088C13.7566 9.25198 14.7831 8.83398 16.0002 8.83398C17.2173 8.83398 18.2437 9.25198 19.0795 10.088C19.9155 10.9238 20.3335 11.9502 20.3335 13.1673C20.3335 14.3844 19.9155 15.4109 19.0795 16.2467C18.2437 17.0827 17.2173 17.5007 16.0002 17.5007ZM16.0002 29.1673C14.2413 29.1673 12.5913 28.8365 11.0502 28.175C9.50905 27.5134 8.1685 26.6125 7.0285 25.4723C5.88827 24.3323 4.98739 22.9918 4.32583 21.4507C3.66427 19.9095 3.3335 18.2595 3.3335 16.5007C3.3335 14.7418 3.66427 13.0918 4.32583 11.5507C4.98739 10.0095 5.88827 8.66898 7.0285 7.52898C8.1685 6.38876 9.50905 5.48787 11.0502 4.82632C12.5913 4.16476 14.2413 3.83398 16.0002 3.83398C17.7591 3.83398 19.4091 4.16476 20.9502 4.82632C22.4913 5.48787 23.8318 6.38876 24.9718 7.52898C26.1121 8.66898 27.0129 10.0095 27.6745 11.5507C28.3361 13.0918 28.6668 14.7418 28.6668 16.5007C28.6668 18.2595 28.3361 19.9095 27.6745 21.4507C27.0129 22.9918 26.1121 24.3323 24.9718 25.4723C23.8318 26.6125 22.4913 27.5134 20.9502 28.175C19.4091 28.8365 17.7591 29.1673 16.0002 29.1673Z" fill="#777777"/>
</g>
</svg>
