<svg width="32" height="32" viewBox="0 0 32 32" fill="none" xmlns="http://www.w3.org/2000/svg">
<g id="add_location_alt_24dp_E3E3E3_FILL0_wght300_GRAD0_opsz24 1">
<g id="Vector">
<path d="M16 28.68C12.6445 25.7724 10.1283 23.0665 8.45137 20.5623C6.77448 18.0579 5.93604 15.7587 5.93604 13.6647C5.93604 10.5878 6.93126 8.09676 8.9217 6.19165C10.9124 4.28654 13.2718 3.33398 16 3.33398H16.5384C16.7179 3.33398 16.8975 3.34765 17.077 3.37498V5.39565C16.8975 5.36832 16.7225 5.3491 16.552 5.33798C16.3814 5.32687 16.1974 5.32132 16 5.32132C13.7129 5.32132 11.7971 6.10421 10.2527 7.66999C8.70826 9.23576 7.93604 11.234 7.93604 13.6647C7.93604 15.2767 8.62792 17.1549 10.0117 19.2993C11.3955 21.4438 13.3916 23.6835 16 26.0187C18.5914 23.7007 20.5768 21.4801 21.9564 19.357C23.3359 17.2339 24.0385 15.3664 24.064 13.7547V13.5903H26.064V13.7547C26.0385 15.84 25.1894 18.1262 23.5167 20.6133C21.844 23.1007 19.3385 25.7895 16 28.68ZM16.0024 15.821C16.6657 15.821 17.2328 15.5848 17.7037 15.1123C18.1748 14.6399 18.4104 14.072 18.4104 13.4087C18.4104 12.7453 18.1741 12.1781 17.7017 11.707C17.2293 11.2361 16.6613 11.0007 15.9977 11.0007C15.3344 11.0007 14.7673 11.2369 14.2964 11.7093C13.8253 12.1818 13.5897 12.7498 13.5897 13.4133C13.5897 14.0767 13.8259 14.6438 14.2984 15.1147C14.7708 15.5855 15.3388 15.821 16.0024 15.821Z" fill="#E3E3E3"/>
<path d="M26 10.666H24V6.66602H20V4.66602H24V0.666016H26V4.66602H30V6.66602H26V10.666Z" fill="url(#paint0_linear_1007_2285)"/>
</g>
</g>
<defs>
<linearGradient id="paint0_linear_1007_2285" x1="17.4211" y1="18.1747" x2="4.14808" y2="2.14664" gradientUnits="userSpaceOnUse">
<stop stop-color="#FFC61B"/>
<stop offset="1" stop-color="#FFE38E"/>
</linearGradient>
</defs>
</svg>
