<svg width="17" height="20" viewBox="0 0 17 20" fill="none" xmlns="http://www.w3.org/2000/svg">
<path d="M13.4839 18.6722C12.477 19.6483 11.3776 19.4942 10.3194 19.0318C9.19945 18.5592 8.17201 18.5386 6.99045 19.0318C5.51093 19.6688 4.73007 19.4839 3.84647 18.6722C-1.16746 13.5042 -0.427702 5.63394 5.26434 5.34626C6.65139 5.41818 7.61719 6.10656 8.42887 6.16821C9.64126 5.92162 10.8023 5.21269 12.0968 5.30516C13.6483 5.42845 14.8196 6.04492 15.5902 7.15456C12.3845 9.07588 13.1448 13.2987 16.0833 14.4802C15.4977 16.0214 14.7374 17.5523 13.4736 18.6825L13.4839 18.6722ZM8.32613 5.28461C8.17201 2.99341 10.0317 1.10291 12.1688 0.917969C12.4667 3.56878 9.76455 5.54147 8.32613 5.28461Z" fill="#444444"/>
</svg>
