<svg width="20" height="22" viewBox="0 0 20 22" fill="none" xmlns="http://www.w3.org/2000/svg">
<g id="Group">
<path id="Vector" d="M2.79784 11.6079C4.30016 11.3933 4.82137 9.89096 4.66807 8.4193C4.54543 7.13159 3.65631 5.65993 2.24596 5.78257C0.835622 5.90521 0.0078125 7.25423 0.0078125 8.84853C0.0078125 10.3509 1.05024 11.8532 2.79784 11.6079Z" fill="white"/>
<path id="Vector_2" d="M6.9674 6.88638C8.43906 6.73309 8.96028 5.23077 8.92962 3.7591C8.8683 2.10349 7.97917 0.815783 6.56883 0.877102C5.31178 0.938421 4.30002 2.19547 4.2387 3.88174C4.17738 5.66 5.31178 7.03968 6.9674 6.88638Z" fill="white"/>
<path id="Vector_3" d="M16.3803 11.6079C14.878 11.3933 14.3568 9.89096 14.5101 8.4193C14.6327 7.13159 15.5218 5.65993 16.9322 5.78257C18.3119 5.90521 19.1397 7.25423 19.1397 8.84853C19.1703 10.3509 18.0972 11.8532 16.3803 11.6079Z" fill="white"/>
<path id="Vector_4" d="M12.2106 6.88638C10.7389 6.73309 10.2177 5.23077 10.2483 3.7591C10.3097 2.10349 11.1988 0.815783 12.6091 0.877102C13.8662 0.938421 14.8779 2.19547 14.9393 3.88174C15.0006 5.66 13.8662 7.03968 12.2106 6.88638Z" fill="white"/>
<path id="Vector_5" d="M5.09766 16.6676C5.09766 17.3114 5.55755 17.894 6.26272 17.894H7.45845V15.4719H6.23206C5.52689 15.4412 5.09766 16.0237 5.09766 16.6676Z" fill="white"/>
<path id="Vector_6" d="M15.3987 13.2936C14.9388 12.8337 13.6204 11.9752 12.6086 10.3196C11.9341 9.21586 10.7997 8.48003 9.57333 8.51069C8.37761 8.48003 7.21254 9.21586 6.53803 10.3196C5.52626 11.9752 4.23856 12.8644 3.74801 13.2936C3.19614 13.8455 0.682047 15.1945 1.23392 18.1071C1.78579 20.9891 4.48384 21.1118 4.48384 21.1118C4.48384 21.1118 5.77154 21.2344 7.94837 20.7132C8.53091 20.5906 9.11344 20.5293 9.57333 20.5293C10.0639 20.5293 10.6158 20.5906 11.1983 20.7132C13.3751 21.2344 14.6628 21.1118 14.6628 21.1118C14.6628 21.1118 17.3915 20.9891 17.9127 18.1071C18.4953 15.1945 15.9812 13.8455 15.3987 13.2936ZM8.86816 19.2416H8.37761H7.45782H6.35407C4.6678 19.2416 3.68669 18.1378 3.68669 16.6048C3.68669 15.1945 4.72912 14.0601 6.2621 14.0601H7.45782V11.8526H8.86816V19.2416ZM14.6015 19.2416H11.6888C10.4931 19.2416 9.97191 18.5977 9.97191 17.6779V14.0294H11.3516V17.218C11.3516 17.7086 11.5662 17.8619 11.8115 17.8619H13.2218V13.9988H14.6015V19.2416Z" fill="white"/>
</g>
</svg>
