<svg width="40" height="40" viewBox="0 0 40 40" fill="none" xmlns="http://www.w3.org/2000/svg">
<rect width="40" height="40" rx="20" fill="#FF3A5B"/>
<path d="M10 29.25V26.75H12.5V18C12.5 16.2708 13.0208 14.7344 14.0625 13.3906C15.1042 12.0469 16.4583 11.1667 18.125 10.75V9.875C18.125 9.35417 18.3073 8.91146 18.6719 8.54688C19.0365 8.18229 19.4792 8 20 8C20.5208 8 20.9635 8.18229 21.3281 8.54688C21.6927 8.91146 21.875 9.35417 21.875 9.875V10.75C23.5417 11.1667 24.8958 12.0469 25.9375 13.3906C26.9792 14.7344 27.5 16.2708 27.5 18V26.75H30V29.25H10ZM20 33C19.3125 33 18.724 32.7552 18.2344 32.2656C17.7448 31.776 17.5 31.1875 17.5 30.5H22.5C22.5 31.1875 22.2552 31.776 21.7656 32.2656C21.276 32.7552 20.6875 33 20 33Z" fill="white"/>
</svg>
