<svg width="33" height="33" viewBox="0 0 33 33" fill="none" xmlns="http://www.w3.org/2000/svg">
<g id="favorite_24dp_E3E3E3_FILL1_wght300_GRAD0_opsz24 1">
<path id="Vector" d="M16.6667 27.6896L15.195 26.3666C12.9848 24.3615 11.157 22.6385 9.71167 21.1976C8.26633 19.7565 7.121 18.4739 6.27567 17.3499C5.43033 16.2261 4.83978 15.2009 4.504 14.2742C4.168 13.3478 4 12.4077 4 11.4539C4 9.56168 4.638 7.97745 5.914 6.70123C7.19022 5.42523 8.77444 4.78723 10.6667 4.78723C11.8307 4.78723 12.9307 5.05945 13.9667 5.6039C15.0027 6.14834 15.9027 6.92912 16.6667 7.94623C17.4307 6.92912 18.3307 6.14834 19.3667 5.6039C20.4027 5.05945 21.5027 4.78723 22.6667 4.78723C24.5589 4.78723 26.1431 5.42523 27.4193 6.70123C28.6953 7.97745 29.3333 9.56168 29.3333 11.4539C29.3333 12.4077 29.1653 13.3478 28.8293 14.2742C28.4936 15.2009 27.903 16.2261 27.0577 17.3499C26.2123 18.4739 25.0691 19.7565 23.628 21.1976C22.1871 22.6385 20.3572 24.3615 18.1383 26.3666L16.6667 27.6896Z" fill="#777777"/>
</g>
</svg>
