<svg width="21" height="21" viewBox="0 0 21 21" fill="none" xmlns="http://www.w3.org/2000/svg">
<path d="M6.5 10.3845C6.74483 10.3845 6.9535 10.2983 7.126 10.126C7.29833 9.9535 7.3845 9.74483 7.3845 9.5C7.3845 9.25517 7.29833 9.0465 7.126 8.874C6.9535 8.70167 6.74483 8.6155 6.5 8.6155C6.25517 8.6155 6.0465 8.70167 5.874 8.874C5.70167 9.0465 5.6155 9.25517 5.6155 9.5C5.6155 9.74483 5.70167 9.9535 5.874 10.126C6.0465 10.2983 6.25517 10.3845 6.5 10.3845ZM10.5 10.3845C10.7448 10.3845 10.9535 10.2983 11.126 10.126C11.2983 9.9535 11.3845 9.74483 11.3845 9.5C11.3845 9.25517 11.2983 9.0465 11.126 8.874C10.9535 8.70167 10.7448 8.6155 10.5 8.6155C10.2552 8.6155 10.0465 8.70167 9.874 8.874C9.70167 9.0465 9.6155 9.25517 9.6155 9.5C9.6155 9.74483 9.70167 9.9535 9.874 10.126C10.0465 10.2983 10.2552 10.3845 10.5 10.3845ZM14.5 10.3845C14.7448 10.3845 14.9535 10.2983 15.126 10.126C15.2983 9.9535 15.3845 9.74483 15.3845 9.5C15.3845 9.25517 15.2983 9.0465 15.126 8.874C14.9535 8.70167 14.7448 8.6155 14.5 8.6155C14.2552 8.6155 14.0465 8.70167 13.874 8.874C13.7017 9.0465 13.6155 9.25517 13.6155 9.5C13.6155 9.74483 13.7017 9.9535 13.874 10.126C14.0465 10.2983 14.2552 10.3845 14.5 10.3845ZM1 20.5385V3.80775C1 3.30258 1.175 2.875 1.525 2.525C1.875 2.175 2.30258 2 2.80775 2H18.1923C18.6974 2 19.125 2.175 19.475 2.525C19.825 2.875 20 3.30258 20 3.80775V15.1923C20 15.6974 19.825 16.125 19.475 16.475C19.125 16.825 18.6974 17 18.1923 17H4.5385L1 20.5385ZM3.9 15.5H18.1923C18.2693 15.5 18.3398 15.4679 18.4038 15.4038C18.4679 15.3398 18.5 15.2692 18.5 15.1923V3.80775C18.5 3.73075 18.4679 3.66025 18.4038 3.59625C18.3398 3.53208 18.2693 3.5 18.1923 3.5H2.80775C2.73075 3.5 2.66025 3.53208 2.59625 3.59625C2.53208 3.66025 2.5 3.73075 2.5 3.80775V16.8848L3.9 15.5Z" fill="#E3E3E3"/>
</svg>
