<svg width="25" height="18" viewBox="0 0 25 18" fill="none" xmlns="http://www.w3.org/2000/svg">
<path d="M16.25 16.7586V14.2759H21.25V16.7586H16.25ZM16.25 6.82759V4.34483H25V6.82759H16.25ZM16.25 11.7931V9.31034H23.75V11.7931H16.25ZM1.25 4.34483H0V1.86207H5V0H10V1.86207H15V4.34483H13.75V15.5172C13.75 16.2 13.5052 16.7845 13.0156 17.2707C12.526 17.7569 11.9375 18 11.25 18H3.75C3.0625 18 2.47396 17.7569 1.98438 17.2707C1.49479 16.7845 1.25 16.2 1.25 15.5172V4.34483ZM3.75 4.34483V15.5172H11.25V4.34483H3.75Z" fill="white"/>
</svg>
