<svg width="23" height="28" viewBox="0 0 23 28" fill="none" xmlns="http://www.w3.org/2000/svg">
<path id="Vector" d="M6 22.5556H17V21H6V22.5556ZM6 16.3333H17V14.7778H6V16.3333ZM3.03864 28C2.31526 28 1.71131 27.7602 1.22679 27.2806C0.742262 26.8009 0.5 26.2031 0.5 25.487V2.513C0.5 1.79693 0.742262 1.19907 1.22679 0.719444C1.71131 0.239815 2.31526 0 3.03864 0H15.4286L22.5 7V25.487C22.5 26.2031 22.2577 26.8009 21.7732 27.2806C21.2887 27.7602 20.6847 28 19.9614 28H3.03864ZM14.6429 7.77778V1.55556H3.03864C2.79664 1.55556 2.57494 1.65524 2.37354 1.85461C2.17213 2.05398 2.07143 2.27344 2.07143 2.513V25.487C2.07143 25.7266 2.17213 25.946 2.37354 26.1454C2.57494 26.3448 2.79664 26.4444 3.03864 26.4444H19.9614C20.2034 26.4444 20.4251 26.3448 20.6265 26.1454C20.8279 25.946 20.9286 25.7266 20.9286 25.487V7.77778H14.6429Z" fill="#E3E3E3"/>
</svg>
