<svg width="33" height="33" viewBox="0 0 33 33" fill="none" xmlns="http://www.w3.org/2000/svg">
<g id="Frame 1321315505">
<path id="Vector" d="M17.0002 5C10.5602 5 5.3335 10.2267 5.3335 16.6667C5.3335 23.1067 10.5602 28.3333 17.0002 28.3333C23.4402 28.3333 28.6668 23.1067 28.6668 16.6667C28.6668 10.2267 23.4402 5 17.0002 5ZM17.0002 26C11.8552 26 7.66683 21.8117 7.66683 16.6667C7.66683 11.5217 11.8552 7.33333 17.0002 7.33333C22.1452 7.33333 26.3335 11.5217 26.3335 16.6667C26.3335 21.8117 22.1452 26 17.0002 26ZM10.5835 23.0833L19.3452 19.0117L23.4168 10.25L14.6552 14.3217L10.5835 23.0833ZM17.0002 15.3833C17.7118 15.3833 18.2835 15.955 18.2835 16.6667C18.2835 17.3783 17.7118 17.95 17.0002 17.95C16.2885 17.95 15.7168 17.3783 15.7168 16.6667C15.7168 15.955 16.2885 15.3833 17.0002 15.3833Z" fill="#777777"/>
</g>
</svg>
