<svg width="17" height="17" viewBox="0 0 17 17" fill="none" xmlns="http://www.w3.org/2000/svg">
<path d="M1.76258 4.8945C2.42437 3.57749 3.43924 2.47038 4.69383 1.69678C5.94843 0.92319 7.39338 0.513571 8.86731 0.513672C11.01 0.513672 12.81 1.30158 14.1863 2.58482L11.9069 4.86508C11.0824 4.07717 10.0345 3.67566 8.86731 3.67566C6.79615 3.67566 5.04303 5.07498 4.4189 6.95372C4.25989 7.43076 4.16925 7.93961 4.16925 8.46435C4.16925 8.9891 4.25989 9.49794 4.4189 9.97498C5.04382 11.8545 6.79615 13.253 8.86731 13.253C9.93667 13.253 10.847 12.9708 11.5594 12.4938C11.9724 12.2218 12.326 11.869 12.5987 11.4566C12.8715 11.0442 13.0578 10.5807 13.1464 10.0942H8.86731V7.01892H16.3553C16.4491 7.53889 16.5 8.08113 16.5 8.64483C16.5 11.0666 15.6333 13.1052 14.1291 14.4886C12.814 15.7034 11.014 16.415 8.86731 16.415C7.82309 16.4154 6.78903 16.2101 5.82422 15.8107C4.85941 15.4113 3.98277 14.8256 3.24439 14.0873C2.50602 13.3489 1.9204 12.4722 1.52098 11.5074C1.12157 10.5426 0.916209 9.50857 0.916627 8.46435C0.916627 7.18111 1.22352 5.96784 1.76258 4.8945Z" fill="#444444"/>
</svg>
