<svg width="21" height="21" viewBox="0 0 21 21" fill="none" xmlns="http://www.w3.org/2000/svg">
<path d="M4.2 8.79648V18.3965H1V8.79648H4.2ZM7.4 18.3965C6.97565 18.3965 6.56869 18.2279 6.26863 17.9279C5.96857 17.6278 5.8 17.2208 5.8 16.7965V8.79648C5.8 8.35648 5.976 7.95648 6.272 7.66848L11.536 2.39648L12.384 3.24448C12.6 3.46048 12.736 3.75648 12.736 4.08448L12.712 4.34048L11.952 7.99648H17C17.4243 7.99648 17.8313 8.16506 18.1314 8.46511C18.4314 8.76517 18.6 9.17214 18.6 9.59648V11.1965C18.6 11.4045 18.56 11.5965 18.488 11.7805L16.072 17.4205C15.832 17.9965 15.264 18.3965 14.6 18.3965H7.4Z" stroke="white" stroke-width="1.2"/>
</svg>
