<svg width="22" height="22" viewBox="0 0 22 22" fill="none" xmlns="http://www.w3.org/2000/svg">
<path d="M13.3333 21.1784V18.7867C15.0833 18.2812 16.4931 17.3089 17.5625 15.8701C18.6319 14.4312 19.1667 12.7978 19.1667 10.9701C19.1667 9.14227 18.6319 7.50894 17.5625 6.07005C16.4931 4.63116 15.0833 3.65894 13.3333 3.15339V0.761719C15.7444 1.30616 17.7083 2.5263 19.225 4.42214C20.7417 6.31797 21.5 8.50061 21.5 10.9701C21.5 13.4395 20.7417 15.6221 19.225 17.518C17.7083 19.4138 15.7444 20.6339 13.3333 21.1784ZM0.5 14.4992V7.49922H5.16667L11 1.66589V20.3326L5.16667 14.4992H0.5ZM13.3333 15.6659V6.27422C14.2472 6.702 14.9618 7.34366 15.4771 8.19922C15.9924 9.05477 16.25 9.98811 16.25 10.9992C16.25 11.9909 15.9924 12.9096 15.4771 13.7555C14.9618 14.6013 14.2472 15.2381 13.3333 15.6659Z" fill="#E3E3E3"/>
</svg>
