<svg width="166" height="141" viewBox="0 0 166 141" fill="none" xmlns="http://www.w3.org/2000/svg">
<path d="M14 112.75H138.5C141.814 112.75 144.5 115.436 144.5 118.75V118.75C144.5 122.064 141.814 124.75 138.5 124.75H48.75C44.4698 124.75 41 128.22 41 132.5V132.5C41 136.78 44.4698 140.25 48.75 140.25H159" stroke="#006FFF" stroke-width="0.8" stroke-dasharray="1 3"/>
<path d="M111 69V72H57V69L63 63V45C63 35.7 69.09 27.51 78 24.87V24C78 22.4087 78.6321 20.8826 79.7574 19.7574C80.8826 18.6321 82.4087 18 84 18C85.5913 18 87.1174 18.6321 88.2426 19.7574C89.3679 20.8826 90 22.4087 90 24V24.87C98.91 27.51 105 35.7 105 45V63L111 69Z" fill="url(#paint0_linear_3664_7047)"/>
<path d="M88.2426 76.2426C89.3679 75.1174 90 73.5913 90 72H78C78 73.5913 78.6321 75.1174 79.7574 76.2426C80.8826 77.3679 82.4087 78 84 78C85.5913 78 87.1174 77.3679 88.2426 76.2426Z" fill="#DC3545"/>
<path fill-rule="evenodd" clip-rule="evenodd" d="M82.5 0C109.838 0 132 22.1619 132 49.5C132 73.9742 114.238 94.2981 90.9014 98.2881L83.1963 134.25L75.5381 98.5137C51.4964 95.1296 33 74.4751 33 49.5C33 22.1619 55.1619 0 82.5 0ZM82.5 3C56.8188 3 36 23.8188 36 49.5C36 75.1812 56.8188 96 82.5 96C108.181 96 129 75.1812 129 49.5C129 23.8188 108.181 3 82.5 3Z" fill="url(#paint1_linear_3664_7047)"/>
<path d="M11.7795 32.3472C10.6186 26.6134 11.4287 20.6555 14.0784 15.4397C16.728 10.224 21.062 6.05622 26.3773 3.61239C26.4809 3.56515 26.5929 3.5388 26.7067 3.53483C26.8205 3.53086 26.934 3.54935 27.0407 3.58924C27.1474 3.62913 27.2452 3.68965 27.3285 3.76733C27.4118 3.84502 27.479 3.93835 27.5262 4.042C27.5734 4.14564 27.5998 4.25758 27.6038 4.37141C27.6077 4.48525 27.5892 4.59875 27.5493 4.70543C27.5094 4.81212 27.4489 4.90991 27.3712 4.99321C27.2936 5.07651 27.2002 5.14369 27.0966 5.19092C22.1394 7.4724 18.0976 11.3607 15.626 16.2259C13.1543 21.0911 12.3977 26.6483 13.4785 31.9972C13.5015 32.1088 13.5023 32.2238 13.4808 32.3357C13.4594 32.4475 13.4161 32.5541 13.3535 32.6492C13.2908 32.7443 13.2101 32.8262 13.1158 32.8901C13.0215 32.954 12.9156 32.9988 12.804 33.0218C12.6925 33.0447 12.5775 33.0455 12.4656 33.0241C12.3537 33.0026 12.2472 32.9593 12.1521 32.8967C12.0569 32.834 11.9751 32.7533 11.9111 32.659C11.8472 32.5647 11.8025 32.4588 11.7795 32.3472ZM19.5732 28.5103C19.0528 25.2601 19.5755 21.9285 21.0663 18.9938C22.5572 16.0591 24.9396 13.6722 27.8714 12.1758C27.9731 12.117 28.0857 12.0795 28.2023 12.0656C28.319 12.0516 28.4372 12.0616 28.5499 12.0949C28.6625 12.1282 28.7673 12.1841 28.8576 12.2591C28.948 12.3342 29.0221 12.4268 29.0755 12.5315C29.1289 12.6361 29.1604 12.7505 29.1681 12.8678C29.1759 12.985 29.1597 13.1025 29.1205 13.2133C29.0813 13.324 29.02 13.4256 28.9403 13.5119C28.8605 13.5982 28.7641 13.6673 28.6568 13.7151C26.0516 15.047 23.9349 17.1693 22.6097 19.7778C21.2845 22.3864 20.8189 25.3474 21.2795 28.2368C21.3158 28.4629 21.2609 28.6941 21.127 28.8799C20.9931 29.0656 20.791 29.1907 20.5651 29.2277C20.4528 29.2458 20.3381 29.2415 20.2275 29.2152C20.1169 29.189 20.0126 29.1411 19.9205 29.0745C19.8284 29.0079 19.7503 28.9238 19.6907 28.827C19.6311 28.7302 19.5912 28.6226 19.5732 28.5103Z" fill="#FFC300"/>
<path d="M152.81 32.3161C153.971 26.5822 153.16 20.6243 150.511 15.4086C147.861 10.1928 143.527 6.02509 138.212 3.58126C138.108 3.53403 137.996 3.50767 137.882 3.5037C137.769 3.49973 137.655 3.51822 137.548 3.55811C137.442 3.598 137.344 3.65852 137.261 3.7362C137.177 3.81389 137.11 3.90722 137.063 4.01087C137.016 4.11452 136.989 4.22645 136.985 4.34028C136.981 4.45412 137 4.56762 137.04 4.67431C137.08 4.78099 137.14 4.87878 137.218 4.96208C137.296 5.04538 137.389 5.11256 137.493 5.15979C142.45 7.44127 146.492 11.3296 148.963 16.1948C151.435 21.06 152.191 26.6172 151.111 31.9661C151.088 32.0777 151.087 32.1927 151.108 32.3045C151.13 32.4164 151.173 32.5229 151.236 32.6181C151.298 32.7132 151.379 32.7951 151.473 32.859C151.568 32.9229 151.674 32.9676 151.785 32.9906C151.897 33.0136 152.012 33.0144 152.124 32.9929C152.235 32.9715 152.342 32.9282 152.437 32.8655C152.532 32.8029 152.614 32.7221 152.678 32.6279C152.742 32.5336 152.787 32.4277 152.81 32.3161ZM145.016 28.4792C145.536 25.2289 145.014 21.8973 143.523 18.9627C142.032 16.028 139.65 13.6411 136.718 12.1447C136.616 12.0859 136.503 12.0483 136.387 12.0344C136.27 12.0205 136.152 12.0305 136.039 12.0638C135.927 12.0971 135.822 12.1529 135.731 12.228C135.641 12.303 135.567 12.3957 135.514 12.5004C135.46 12.605 135.429 12.7194 135.421 12.8366C135.413 12.9538 135.429 13.0714 135.469 13.1822C135.508 13.2929 135.569 13.3945 135.649 13.4808C135.729 13.5671 135.825 13.6362 135.932 13.684C138.537 15.0159 140.654 17.1381 141.979 19.7467C143.305 22.3553 143.77 25.3163 143.31 28.2057C143.273 28.4318 143.328 28.663 143.462 28.8487C143.596 29.0345 143.798 29.1596 144.024 29.1966C144.136 29.2146 144.251 29.2104 144.362 29.1841C144.472 29.1578 144.577 29.11 144.669 29.0434C144.761 28.9768 144.839 28.8927 144.898 28.7959C144.958 28.699 144.998 28.5914 145.016 28.4792Z" fill="#FFC300"/>
<circle cx="159" cy="127" r="2.67857" fill="#8B0000"/>
<path d="M159 129.232C158.408 129.232 157.84 128.997 157.422 128.578C157.003 128.16 156.768 127.592 156.768 127C156.768 126.408 157.003 125.84 157.422 125.422C157.84 125.003 158.408 124.768 159 124.768C159.592 124.768 160.16 125.003 160.578 125.422C160.997 125.84 161.232 126.408 161.232 127C161.232 127.592 160.997 128.16 160.578 128.578C160.16 128.997 159.592 129.232 159 129.232ZM152.75 127C152.75 131.688 159 138.607 159 138.607C159 138.607 165.25 131.688 165.25 127C165.25 123.545 162.455 120.75 159 120.75C155.545 120.75 152.75 123.545 152.75 127Z" fill="#D22F27"/>
<rect x="0.270833" y="106.521" width="12.4583" height="12.4583" rx="6.22917" stroke="#006FFF" stroke-opacity="0.64" stroke-width="0.541667"/>
<path d="M10.8254 112.75L3.25806 109.686L4.79012 112.75L3.25806 115.814L10.8254 112.75Z" fill="#006FFF"/>
<defs>
<linearGradient id="paint0_linear_3664_7047" x1="84" y1="18" x2="84" y2="72" gradientUnits="userSpaceOnUse">
<stop stop-color="#FFC61B"/>
<stop offset="1" stop-color="#FF9500"/>
</linearGradient>
<linearGradient id="paint1_linear_3664_7047" x1="82.5" y1="0" x2="82.5" y2="134.25" gradientUnits="userSpaceOnUse">
<stop stop-color="#FFC61B"/>
<stop offset="1" stop-color="#FF9500"/>
</linearGradient>
</defs>
</svg>
