<svg width="72" height="72" viewBox="0 0 72 72" fill="none" xmlns="http://www.w3.org/2000/svg">
<g id="place">
<path id="Vector" d="M36 6.98633C48.3393 6.98633 59.4998 16.4376 59.5 31.0859C59.5 35.7266 57.7114 40.8224 54.0762 46.3867C50.4416 51.9499 44.979 57.9538 37.6787 64.4014C36.7862 65.1738 35.4752 65.2216 34.5312 64.5439L34.3477 64.3984C27.0339 57.9518 21.5644 51.9491 17.9268 46.3867C14.2879 40.8225 12.5 35.7266 12.5 31.0859C12.5002 16.4376 23.6607 6.98633 36 6.98633ZM36 23.9863C32.4239 23.9863 29.5 26.9102 29.5 30.4863C29.5 34.0625 32.4239 36.9863 36 36.9863C39.5761 36.9863 42.5 34.0625 42.5 30.4863C42.5 26.9102 39.5761 23.9863 36 23.9863Z" fill="#FFC61B" stroke="#FFB956"/>
</g>
</svg>
