<svg width="32" height="33" viewBox="0 0 32 33" fill="none" xmlns="http://www.w3.org/2000/svg">
<g id="account_circle_24dp_E3E3E3_FILL1_wght300_GRAD0_opsz24 1">
<path id="Vector" d="M8.03071 23.5563C9.16404 22.7154 10.3987 22.0513 11.7347 21.564C13.0705 21.0769 14.4923 20.8333 16 20.8333C17.5078 20.8333 18.9296 21.0769 20.2654 21.564C21.6014 22.0513 22.836 22.7154 23.9694 23.5563C24.7983 22.6452 25.455 21.5905 25.9397 20.3923C26.4244 19.1941 26.6667 17.8966 26.6667 16.5C26.6667 13.5444 25.6278 11.0278 23.55 8.94998C21.4723 6.8722 18.9556 5.83331 16 5.83331C13.0445 5.83331 10.5278 6.8722 8.45004 8.94998C6.37226 11.0278 5.33337 13.5444 5.33337 16.5C5.33337 17.8966 5.57571 19.1941 6.06037 20.3923C6.54504 21.5905 7.20182 22.6452 8.03071 23.5563ZM16 17.5C14.7829 17.5 13.7565 17.082 12.9207 16.246C12.0847 15.4102 11.6667 14.3838 11.6667 13.1666C11.6667 11.9495 12.0847 10.9231 12.9207 10.0873C13.7565 9.25131 14.7829 8.83331 16 8.83331C17.2172 8.83331 18.2436 9.25131 19.0794 10.0873C19.9154 10.9231 20.3334 11.9495 20.3334 13.1666C20.3334 14.3838 19.9154 15.4102 19.0794 16.246C18.2436 17.082 17.2172 17.5 16 17.5ZM16 29.1666C14.2412 29.1666 12.5912 28.8359 11.05 28.1743C9.50893 27.5128 8.16837 26.6119 7.02837 25.4716C5.88815 24.3316 4.98726 22.9911 4.32571 21.45C3.66415 19.9089 3.33337 18.2589 3.33337 16.5C3.33337 14.7411 3.66415 13.0911 4.32571 11.55C4.98726 10.0089 5.88815 8.66831 7.02837 7.52831C8.16837 6.38809 9.50893 5.4872 11.05 4.82565C12.5912 4.16409 14.2412 3.83331 16 3.83331C17.7589 3.83331 19.4089 4.16409 20.95 4.82565C22.4912 5.4872 23.8317 6.38809 24.9717 7.52831C26.1119 8.66831 27.0128 10.0089 27.6744 11.55C28.3359 13.0911 28.6667 14.7411 28.6667 16.5C28.6667 18.2589 28.3359 19.9089 27.6744 21.45C27.0128 22.9911 26.1119 24.3316 24.9717 25.4716C23.8317 26.6119 22.4912 27.5128 20.95 28.1743C19.4089 28.8359 17.7589 29.1666 16 29.1666Z" fill="#FFD75E"/>
</g>
</svg>
