<svg width="21" height="24" viewBox="0 0 21 24" fill="none" xmlns="http://www.w3.org/2000/svg">
<g id="Group">
<path id="Vector" d="M10.504 -0.000427207C8.57589 -0.000624085 6.72093 0.737633 5.32025 2.06265C3.91957 3.38768 3.07955 5.19883 2.97279 7.12397L2.79759 10.28C2.53617 10.8371 2.29007 11.4013 2.05959 11.972C0.571595 15.6596 -0.0140051 18.8996 0.753995 19.2104C1.15599 19.3724 1.84959 18.6992 2.63319 17.492C2.94877 19.1413 3.77493 20.6496 4.99479 21.8036C3.76239 22.2236 2.70279 22.7972 2.70279 23.3996C2.70279 24.0104 5.67879 24.0032 7.78959 23.9996H7.79079C8.44959 23.9972 9.0028 23.99 9.4468 23.9312C10.1478 24.0235 10.8578 24.0235 11.5588 23.9312C12.0028 23.9912 12.5584 23.9972 13.2172 23.9984C15.3292 24.0032 18.304 24.0104 18.304 23.3996C18.304 22.7972 17.2444 22.2248 16.0132 21.8036C17.2311 20.6517 18.0567 19.1465 18.3736 17.5004C19.1536 18.7028 19.846 19.3724 20.2456 19.2104C21.0136 18.8996 20.4304 15.6584 18.94 11.972C18.7124 11.4075 18.4695 10.8493 18.2116 10.298L18.0352 7.12397C17.9284 5.19883 17.0884 3.38768 15.6877 2.06265C14.2871 0.737633 12.4321 -0.000624085 10.504 -0.000427207Z" fill="white"/>
</g>
</svg>
