<svg width="33" height="33" viewBox="0 0 33 33" fill="none" xmlns="http://www.w3.org/2000/svg">
<g id="Home" clip-path="url(#clip0_393_6161)">
<g id="Vector">
<path d="M30.6516 25.9091H29.6061V18.5909C29.6061 18.0364 29.3858 17.5045 28.9937 17.1124C28.6016 16.7203 28.0697 16.5 27.5152 16.5H22.2879V7.09091C22.2879 6.53637 22.0676 6.00453 21.6755 5.61241C21.2834 5.22029 20.7516 5 20.197 5H11.8334C11.2788 5 10.747 5.22029 10.3549 5.61241C9.96276 6.00453 9.74246 6.53637 9.74246 7.09091V11.2727H4.51519C3.96065 11.2727 3.42882 11.493 3.0367 11.8851C2.64457 12.2773 2.42428 12.8091 2.42428 13.3636V25.9091H1.37883C1.10156 25.9091 0.835641 26.0192 0.639581 26.2153C0.44352 26.4114 0.333374 26.6773 0.333374 26.9545C0.333374 27.2318 0.44352 27.4977 0.639581 27.6938C0.835641 27.8899 1.10156 28 1.37883 28H30.6516C30.9288 28 31.1947 27.8899 31.3908 27.6938C31.5869 27.4977 31.697 27.2318 31.697 26.9545C31.697 26.6773 31.5869 26.4114 31.3908 26.2153C31.1947 26.0192 30.9288 25.9091 30.6516 25.9091ZM9.74246 23.2955C9.74246 24.7389 8.5723 25.9091 7.12883 25.9091C5.68536 25.9091 4.51519 24.7389 4.51519 23.2955V15.9773C4.51519 14.5338 5.68536 13.3636 7.12883 13.3636C8.5723 13.3636 9.74246 14.5338 9.74246 15.9773V23.2955ZM17.5834 17.5455C17.5834 17.8227 17.4732 18.0886 17.2772 18.2847C17.0811 18.4808 16.8152 18.5909 16.5379 18.5909C16.2606 18.5909 15.9947 18.4808 15.7987 18.2847C15.6026 18.0886 15.4925 17.8227 15.4925 17.5455V13.7687L15.3004 13.8328C15.1701 13.8762 15.0326 13.8935 14.8956 13.8838C14.7587 13.8741 14.625 13.8375 14.5022 13.7761C14.3794 13.7147 14.2698 13.6297 14.1799 13.5259C14.0899 13.4222 14.0213 13.3018 13.9779 13.1715C13.9344 13.0413 13.9171 12.9037 13.9268 12.7668C13.9366 12.6298 13.9732 12.4961 14.0346 12.3733C14.096 12.2505 14.181 12.141 14.2847 12.0511C14.3884 11.9611 14.5089 11.8925 14.6391 11.849L16.2073 11.3263C16.3645 11.2739 16.5318 11.2596 16.6956 11.2846C16.8594 11.3096 17.0148 11.3731 17.1492 11.47C17.2836 11.5669 17.3931 11.6943 17.4685 11.8418C17.544 11.9892 17.5834 12.1525 17.5834 12.3182V17.5455ZM27.5152 23.2955C27.5152 24.7389 26.345 25.9091 24.9016 25.9091C23.4581 25.9091 22.2879 24.7389 22.2879 23.2955V21.2045C22.2879 19.7611 23.4581 18.5909 24.9016 18.5909C26.345 18.5909 27.5152 19.7611 27.5152 21.2045V23.2955Z" fill="#777777"/>
<path d="M17.5834 17.5455C17.5834 17.8227 17.4732 18.0886 17.2772 18.2847C17.0811 18.4808 16.8152 18.5909 16.5379 18.5909C16.2606 18.5909 15.9947 18.4808 15.7987 18.2847C15.6026 18.0886 15.4925 17.8227 15.4925 17.5455V13.7687L15.3004 13.8328C15.1701 13.8762 15.0326 13.8935 14.8956 13.8838C14.7587 13.8741 14.625 13.8375 14.5022 13.7761C14.3794 13.7147 14.2698 13.6297 14.1799 13.5259C14.0899 13.4222 14.0213 13.3018 13.9779 13.1715C13.9344 13.0413 13.9171 12.9037 13.9268 12.7668C13.9366 12.6298 13.9732 12.4961 14.0346 12.3733C14.096 12.2505 14.181 12.141 14.2847 12.0511C14.3884 11.9611 14.5089 11.8925 14.6391 11.849L16.2073 11.3263C16.3645 11.2739 16.5318 11.2596 16.6956 11.2846C16.8594 11.3096 17.0148 11.3731 17.1492 11.47C17.2836 11.5669 17.3931 11.6943 17.4685 11.8418C17.544 11.9892 17.5834 12.1525 17.5834 12.3182V17.5455Z" fill="#989898"/>
<path d="M9.74246 23.2955C9.74246 24.7389 8.5723 25.9091 7.12883 25.9091C5.68536 25.9091 4.51519 24.7389 4.51519 23.2955V15.9773C4.51519 14.5338 5.68536 13.3636 7.12883 13.3636C8.5723 13.3636 9.74246 14.5338 9.74246 15.9773V23.2955Z" fill="#989898"/>
<path d="M27.5152 23.2955C27.5152 24.7389 26.345 25.9091 24.9016 25.9091C23.4581 25.9091 22.2879 24.7389 22.2879 23.2955V21.2045C22.2879 19.7611 23.4581 18.5909 24.9016 18.5909C26.345 18.5909 27.5152 19.7611 27.5152 21.2045V23.2955Z" fill="#989898"/>
</g>
</g>
<defs>
<clipPath id="clip0_393_6161">
<rect width="32" height="32" fill="white" transform="translate(0.333374 0.5)"/>
</clipPath>
</defs>
</svg>
