<svg width="40" height="38" viewBox="0 0 40 38" fill="none" xmlns="http://www.w3.org/2000/svg">
<g clip-path="url(#clip0_1977_25921)">
<path d="M32.7356 13.2797C32.735 13.0973 32.7308 12.916 32.7226 12.7355V2.44636L29.8781 5.29089C27.55 2.44122 24.0084 0.621094 20.0415 0.621094C15.9132 0.621094 12.2456 2.5916 9.92725 5.64323L14.5898 10.3548C15.0467 9.50975 15.6958 8.78393 16.4785 8.23573C17.2925 7.60051 18.4458 7.08113 20.0413 7.08113C20.234 7.08113 20.3828 7.10365 20.4921 7.14609C22.4689 7.30211 24.1824 8.39304 25.1913 9.97645L21.8909 13.2768C26.0712 13.2604 30.7937 13.2508 32.7352 13.2789" fill="#1C3AA9"/>
<path d="M19.9662 0.62207C19.7839 0.622676 19.6025 0.626883 19.4221 0.635056H9.13288L11.9774 3.47958C9.12774 5.80767 7.30762 9.34929 7.30762 13.3162C7.30762 17.4445 9.27815 21.112 12.3298 23.4304L17.0413 18.7679C16.1963 18.311 15.4704 17.6618 14.9223 16.8792C14.2871 16.0652 13.7677 14.9118 13.7677 13.3164C13.7677 13.1236 13.7902 12.9749 13.8326 12.8655C13.9886 10.8888 15.0796 9.1753 16.663 8.16639L19.9633 11.4668C19.9469 7.28643 19.9373 2.56397 19.9655 0.622433" fill="#4285F4"/>
<path d="M7.30859 13.3154C7.3092 13.4978 7.31341 13.6791 7.32158 13.8596V24.1487L10.1661 21.3042C12.4942 24.1539 16.0358 25.974 20.0027 25.974C24.131 25.974 27.7985 24.0035 30.1169 20.9519L25.4544 16.2403C24.9975 17.0853 24.3484 17.8112 23.5657 18.3594C22.7517 18.9946 21.5983 19.514 20.0029 19.514C19.8101 19.514 19.6614 19.4914 19.5521 19.449C17.5753 19.293 15.8618 18.2021 14.8529 16.6186L18.1533 13.3183C13.973 13.3347 9.25049 13.3443 7.30896 13.3162" fill="#ABABAB"/>
<path d="M9.45053 30.8897C9.14132 30.8897 8.86411 30.9484 8.61886 31.0656C8.37362 31.1803 8.16571 31.3442 7.99511 31.5574C7.82718 31.7707 7.6979 32.0293 7.60726 32.3331C7.51929 32.6343 7.47531 32.9715 7.47531 33.3447V34.4203C7.47531 34.7961 7.51929 35.1346 7.60726 35.4359C7.69789 35.7371 7.82583 35.9943 7.99111 36.2075C8.15639 36.4208 8.35629 36.5847 8.59086 36.6993C8.82542 36.814 9.08932 36.8713 9.38255 36.8713C9.68376 36.8713 9.94766 36.8273 10.1742 36.7393C10.4035 36.6514 10.5954 36.5247 10.75 36.3595C10.9046 36.1916 11.0232 35.989 11.1059 35.7517C11.1912 35.5145 11.2418 35.2453 11.2578 34.9441H10.5181C10.4994 35.176 10.4674 35.3746 10.4221 35.5398C10.3768 35.7024 10.3102 35.837 10.2222 35.9436C10.1369 36.0476 10.025 36.1249 9.88633 36.1755C9.75038 36.2235 9.58244 36.2475 9.38254 36.2475C9.16929 36.2475 8.98802 36.2009 8.83876 36.1076C8.68949 36.0116 8.56821 35.881 8.47491 35.7157C8.38428 35.5505 8.31764 35.3572 8.27499 35.136C8.23501 34.9147 8.21502 34.6761 8.21502 34.4202V33.3367C8.21502 33.0621 8.23901 32.8129 8.28699 32.589C8.33764 32.3651 8.4136 32.1745 8.5149 32.0172C8.61619 31.8599 8.74414 31.7387 8.89876 31.6534C9.05336 31.5654 9.2373 31.5214 9.45052 31.5214C9.62912 31.5214 9.78237 31.5481 9.91033 31.6014C10.0383 31.652 10.1449 31.732 10.2302 31.8413C10.3155 31.9479 10.3808 32.0839 10.4261 32.2491C10.4714 32.4144 10.5021 32.6116 10.5181 32.8409H11.2578C11.2445 32.5263 11.1951 32.2478 11.1098 32.0052C11.0246 31.7626 10.9059 31.5587 10.754 31.3934C10.6021 31.2282 10.4168 31.1029 10.1982 31.0176C9.98232 30.9323 9.7331 30.8896 9.45052 30.8896L9.45053 30.8897ZM27.5074 30.8897C27.1981 30.8897 26.9209 30.9484 26.6757 31.0656C26.4304 31.1803 26.2225 31.3442 26.0519 31.5574C25.884 31.7707 25.7547 32.0293 25.6641 32.3331C25.5761 32.6343 25.5321 32.9715 25.5321 33.3447V34.4203C25.5321 34.7961 25.5761 35.1346 25.6641 35.4359C25.7547 35.7371 25.8827 35.9943 26.0479 36.2075C26.2132 36.4208 26.4131 36.5847 26.6477 36.6993C26.8822 36.814 27.1461 36.8713 27.4394 36.8713C27.7406 36.8713 28.0044 36.8273 28.2311 36.7393C28.4603 36.6514 28.6522 36.5247 28.8068 36.3595C28.9614 36.1916 29.08 35.989 29.1627 35.7517C29.248 35.5145 29.2986 35.2453 29.3146 34.9441H28.5749C28.5563 35.176 28.5243 35.3746 28.479 35.5398C28.4337 35.7024 28.367 35.837 28.2791 35.9436C28.1938 36.0476 28.0818 36.1249 27.9432 36.1755C27.8072 36.2235 27.6393 36.2475 27.4394 36.2475C27.2261 36.2475 27.0449 36.2009 26.8956 36.1076C26.7463 36.0116 26.6251 35.881 26.5318 35.7157C26.4411 35.5505 26.3745 35.3572 26.3318 35.136C26.2919 34.9147 26.2719 34.6761 26.2719 34.4202V33.3367C26.2719 33.0621 26.2959 32.8129 26.3438 32.589C26.3945 32.3651 26.4705 32.1745 26.5718 32.0172C26.673 31.8599 26.801 31.7387 26.9556 31.6534C27.1102 31.5654 27.2941 31.5214 27.5073 31.5214C27.6859 31.5214 27.8392 31.5481 27.9672 31.6014C28.0951 31.652 28.2017 31.732 28.287 31.8413C28.3723 31.9479 28.4376 32.0839 28.4829 32.2491C28.5283 32.4144 28.5589 32.6116 28.5749 32.8409H29.3146C29.3012 32.5263 29.2519 32.2478 29.1666 32.0052C29.0813 31.7626 28.9627 31.5587 28.8108 31.3934C28.6588 31.2282 28.4736 31.1029 28.255 31.0176C28.0391 30.9323 27.7899 30.8896 27.5073 30.8896L27.5074 30.8897ZM13.6651 30.9697L11.7898 36.7913H12.5415L12.9933 35.2719H14.9605L15.4203 36.7913H16.172L14.2928 30.9697H13.6651ZM16.9636 30.9697V36.7913H17.6953V34.5122H18.8188C19.0987 34.5122 19.3466 34.4735 19.5626 34.3962C19.7785 34.3163 19.9597 34.2016 20.1063 34.0524C20.2556 33.9031 20.3676 33.7192 20.4422 33.5006C20.5195 33.2794 20.5581 33.0288 20.5581 32.7489C20.5581 32.4903 20.5195 32.2531 20.4422 32.0372C20.3675 31.8186 20.2569 31.6307 20.1103 31.4734C19.9637 31.3135 19.7811 31.1895 19.5626 31.1016C19.3466 31.0136 19.0988 30.9696 18.8188 30.9696L16.9636 30.9697ZM21.1179 30.9697V31.6014H22.6453V36.7913H23.377V31.6014H24.9083V30.9697H21.1179ZM30.3022 30.9697V36.7913H31.0339V34.1004H33.3769V36.7913H34.1126V30.9697H33.3769V33.4727H31.0339V30.9697H30.3022ZM36.8875 30.9697L35.0123 36.7913H35.764L36.2158 35.2719H38.183L38.6428 36.7913H39.3945L37.5152 30.9697H36.8875ZM17.6952 31.6014H18.8188C18.9974 31.6014 19.1493 31.6334 19.2746 31.6974C19.4025 31.7614 19.5065 31.8467 19.5865 31.9533C19.6691 32.0599 19.7291 32.1839 19.7664 32.3251C19.8064 32.4637 19.8264 32.6077 19.8264 32.757C19.8264 32.9222 19.8064 33.0742 19.7664 33.2128C19.7291 33.3487 19.6691 33.4673 19.5865 33.5686C19.5065 33.6673 19.4025 33.7445 19.2746 33.8005C19.1493 33.8565 18.9974 33.8845 18.8188 33.8845H17.6952V31.6014ZM13.9768 31.9933L14.7725 34.6402H13.1852L13.9768 31.9933ZM37.1993 31.9933L37.995 34.6402H36.4076L37.1993 31.9933ZM2.75778 32.3851C2.57385 32.3851 2.41524 32.4318 2.28196 32.5251C2.15134 32.6184 2.04205 32.745 1.9541 32.9049L1.9421 32.4651H1.25439V36.7913H1.96211V33.6965C2.02875 33.5125 2.12338 33.3673 2.246 33.2606C2.37128 33.154 2.52988 33.1007 2.72182 33.1007C2.78312 33.1007 2.83777 33.1034 2.88575 33.1087C2.93373 33.1114 2.98571 33.118 3.04168 33.1287L3.03769 32.441C3.02702 32.4356 3.0097 32.4303 2.98571 32.4249C2.96438 32.4169 2.94039 32.4103 2.91373 32.405C2.88708 32.3996 2.85909 32.3956 2.82977 32.393C2.80311 32.3876 2.77912 32.385 2.7578 32.385L2.75778 32.3851ZM5.13681 32.3851C4.93156 32.3851 4.73297 32.4211 4.54106 32.4931C4.34914 32.5651 4.17854 32.6837 4.02928 32.8489C3.88267 33.0115 3.76405 33.2248 3.67342 33.4887C3.58279 33.7499 3.53748 34.0711 3.53748 34.4523V34.9401C3.53748 35.2706 3.57613 35.5572 3.65343 35.7997C3.73073 36.0423 3.84136 36.2436 3.98528 36.4035C4.13189 36.5608 4.30915 36.6781 4.51707 36.7554C4.72499 36.8327 4.95823 36.8713 5.2168 36.8713C5.40339 36.8713 5.56999 36.8527 5.71659 36.8154C5.86586 36.778 5.99781 36.7301 6.11244 36.6714C6.22706 36.6101 6.32569 36.5408 6.40832 36.4635C6.49095 36.3862 6.56159 36.3062 6.62023 36.2236L6.25239 35.7758C6.19374 35.8477 6.1311 35.9144 6.06446 35.9757C5.99782 36.0343 5.92452 36.0863 5.84455 36.1316C5.76458 36.1743 5.67662 36.2076 5.58066 36.2316C5.4847 36.2556 5.37674 36.2676 5.2568 36.2676C4.92894 36.2676 4.67703 36.1623 4.5011 35.9517C4.32784 35.7411 4.2412 35.4039 4.2412 34.9401V34.8401H6.65623V34.4283C6.65623 34.0978 6.62824 33.8059 6.57226 33.5527C6.51628 33.2994 6.42699 33.0862 6.30437 32.9129C6.18175 32.7397 6.02448 32.609 5.83255 32.5211C5.64062 32.4304 5.40873 32.3851 5.13681 32.3851L5.13681 32.3851ZM5.13681 32.9929C5.29141 32.9929 5.41936 33.0209 5.52067 33.0769C5.62196 33.1328 5.70192 33.2115 5.76057 33.3128C5.82188 33.414 5.86586 33.5353 5.89251 33.6766C5.92183 33.8152 5.94049 33.9685 5.94849 34.1364V34.2324H4.24518C4.25585 33.9898 4.28517 33.7885 4.33315 33.6286C4.38113 33.4687 4.44377 33.342 4.52107 33.2488C4.60104 33.1528 4.693 33.0862 4.79696 33.0489C4.90092 33.0115 5.0142 32.9929 5.13684 32.9929L5.13681 32.9929Z" fill="#A6A6A6"/>
</g>
<defs>
<clipPath id="clip0_1977_25921">
<rect width="38.9189" height="37.2973" fill="white" transform="translate(0.864746 0.134766)"/>
</clipPath>
</defs>
</svg>
