<svg width="18" height="20" viewBox="0 0 18 20" fill="none" xmlns="http://www.w3.org/2000/svg">
<path d="M7.875 14.4444H10.125V9.83333L11.925 11.5556L13.5 10L9 5.55556L4.5 10L6.075 11.5556L7.875 9.83333V14.4444ZM3.375 20C2.75625 20 2.22656 19.7824 1.78594 19.3472C1.34531 18.912 1.125 18.3889 1.125 17.7778V3.33333H0V1.11111H5.625V0H12.375V1.11111H18V3.33333H16.875V17.7778C16.875 18.3889 16.6547 18.912 16.2141 19.3472C15.7734 19.7824 15.2437 20 14.625 20H3.375ZM14.625 3.33333H3.375V17.7778H14.625V3.33333Z" fill="white"/>
</svg>
