<svg width="16" height="20" viewBox="0 0 16 20" fill="none" xmlns="http://www.w3.org/2000/svg">
<path id="Vector" d="M8.00185 9.85323C8.52915 9.85323 8.97995 9.66683 9.35427 9.29404C9.72876 8.92124 9.916 8.47313 9.916 7.94971C9.916 7.42629 9.72823 6.9787 9.35268 6.60696C8.97712 6.23539 8.52561 6.04961 7.99815 6.04961C7.47085 6.04961 7.02005 6.236 6.64573 6.6088C6.27124 6.9816 6.084 7.42979 6.084 7.95339C6.084 8.47681 6.27177 8.92431 6.64732 9.29588C7.02288 9.66745 7.47439 9.85323 8.00185 9.85323ZM8 17.9C10.0735 16.0574 11.6602 14.29 12.7602 12.5979C13.8602 10.9058 14.4102 9.42371 14.4102 8.15171C14.4102 6.23372 13.7963 4.65697 12.5686 3.42145C11.3409 2.18593 9.81805 1.56816 8 1.56816C6.18195 1.56816 4.65907 2.18593 3.43137 3.42145C2.20367 4.65697 1.58983 6.23372 1.58983 8.15171C1.58983 9.42371 2.13982 10.9058 3.2398 12.5979C4.33978 14.29 5.92651 16.0574 8 17.9ZM8 20C5.33263 17.7057 3.33245 15.5705 1.99947 13.5945C0.66649 11.6183 0 9.80404 0 8.15171C0 5.7238 0.791114 3.75821 2.37334 2.25492C3.95575 0.751641 5.8313 0 8 0C10.1687 0 12.0442 0.751641 13.6267 2.25492C15.2089 3.75821 16 5.7238 16 8.15171C16 9.80404 15.3335 11.6183 14.0005 13.5945C12.6676 15.5705 10.6674 17.7057 8 20Z" fill="#FFD75E"/>
</svg>
