<svg width="21" height="21" viewBox="0 0 21 21" fill="none" xmlns="http://www.w3.org/2000/svg">
<path d="M3.70141 18C3.22596 18 2.82353 17.8353 2.49412 17.5059C2.16471 17.1765 2 16.774 2 16.2986V3.70141C2 3.22596 2.16471 2.82353 2.49412 2.49412C2.82353 2.16471 3.22596 2 3.70141 2H9.63788V3.41176H3.70141C3.62894 3.41176 3.56259 3.44196 3.50235 3.50235C3.44196 3.56259 3.41176 3.62894 3.41176 3.70141V16.2986C3.41176 16.3711 3.44196 16.4374 3.50235 16.4976C3.56259 16.558 3.62894 16.5882 3.70141 16.5882H16.2986C16.3711 16.5882 16.4374 16.558 16.4976 16.4976C16.558 16.4374 16.5882 16.3711 16.5882 16.2986V10.3621H18V16.2986C18 16.774 17.8353 17.1765 17.5059 17.5059C17.1765 17.8353 16.774 18 16.2986 18H3.70141ZM7.85341 13.1384L6.86165 12.1466L15.5965 3.41176H11.8824V2H18V8.11765H16.5882V4.40353L7.85341 13.1384Z" fill="#E3E3E3"/>
</svg>
