<svg width="33" height="33" viewBox="0 0 33 33" fill="none" xmlns="http://www.w3.org/2000/svg">
<g id="Frame 1321315504">
<path id="Vector" d="M18.1665 28C16.5757 28 15.0807 27.6981 13.6815 27.0944C12.2823 26.4906 11.0653 25.6713 10.0303 24.6362C8.99525 23.6012 8.17588 22.3842 7.57213 20.985C6.96838 19.5858 6.6665 18.0908 6.6665 16.5C6.6665 14.9092 6.96838 13.4142 7.57213 12.015C8.17588 10.6158 8.99525 9.39875 10.0303 8.36375C11.0653 7.32875 12.2823 6.50937 13.6815 5.90563C15.0807 5.30187 16.5757 5 18.1665 5C19.7573 5 21.2523 5.30187 22.6515 5.90563C24.0507 6.50937 25.2678 7.32875 26.3028 8.36375C27.3378 9.39875 28.1571 10.6158 28.7609 12.015C29.3646 13.4142 29.6665 14.9092 29.6665 16.5C29.6665 18.0908 29.3646 19.5858 28.7609 20.985C28.1571 22.3842 27.3378 23.6012 26.3028 24.6362C25.2678 25.6713 24.0507 26.4906 22.6515 27.0944C21.2523 27.6981 19.7573 28 18.1665 28ZM17.0165 25.6425V23.4C16.384 23.4 15.8425 23.1748 15.3921 22.7244C14.9417 22.274 14.7165 21.7325 14.7165 21.1V19.95L9.1965 14.43C9.139 14.775 9.0863 15.12 9.03838 15.465C8.99046 15.81 8.9665 16.155 8.9665 16.5C8.9665 18.8192 9.72838 20.8508 11.2521 22.595C12.7759 24.3392 14.6973 25.355 17.0165 25.6425ZM24.9515 22.71C25.7373 21.8475 26.3363 20.8844 26.7484 19.8206C27.1605 18.7569 27.3665 17.65 27.3665 16.5C27.3665 14.6217 26.8442 12.9062 25.7996 11.3538C24.755 9.80125 23.3607 8.68 21.6165 7.99V8.45C21.6165 9.0825 21.3913 9.62396 20.9409 10.0744C20.4905 10.5248 19.949 10.75 19.3165 10.75H17.0165V13.05C17.0165 13.3758 16.9063 13.649 16.6859 13.8694C16.4655 14.0898 16.1923 14.2 15.8665 14.2H13.5665V16.5H20.4665C20.7923 16.5 21.0655 16.6102 21.2859 16.8306C21.5063 17.051 21.6165 17.3242 21.6165 17.65V21.1H22.7665C23.2648 21.1 23.7153 21.2485 24.1178 21.5456C24.5203 21.8427 24.7982 22.2308 24.9515 22.71Z" fill="#FFC61B"/>
</g>
</svg>
