<svg width="24" height="23" viewBox="0 0 24 23" fill="none" xmlns="http://www.w3.org/2000/svg">
<path id="Vector" d="M11.6667 23C10.0759 23 8.58092 22.6981 7.18175 22.0944C5.78258 21.4906 4.5655 20.6712 3.5305 19.6362C2.4955 18.6012 1.67612 17.3842 1.07237 15.985C0.468623 14.5858 0.166748 13.0908 0.166748 11.5C0.166748 9.90917 0.468623 8.41417 1.07237 7.015C1.67612 5.61583 2.4955 4.39875 3.5305 3.36375C4.5655 2.32875 5.78258 1.50938 7.18175 0.905625C8.58092 0.301875 10.0759 0 11.6667 0C13.2576 0 14.7526 0.301875 16.1517 0.905625C17.5509 1.50938 18.768 2.32875 19.803 3.36375C20.838 4.39875 21.6574 5.61583 22.2611 7.015C22.8649 8.41417 23.1667 9.90917 23.1667 11.5C23.1667 13.0908 22.8649 14.5858 22.2611 15.985C21.6574 17.3842 20.838 18.6012 19.803 19.6362C18.768 20.6712 17.5509 21.4906 16.1517 22.0944C14.7526 22.6981 13.2576 23 11.6667 23ZM10.5167 20.6425V18.4C9.88425 18.4 9.34279 18.1748 8.89237 17.7244C8.44196 17.274 8.21675 16.7325 8.21675 16.1V14.95L2.69675 9.43C2.63925 9.775 2.58654 10.12 2.53862 10.465C2.49071 10.81 2.46675 11.155 2.46675 11.5C2.46675 13.8192 3.22862 15.8508 4.75237 17.595C6.27612 19.3392 8.19758 20.355 10.5167 20.6425ZM18.4517 17.71C19.2376 16.8475 19.8365 15.8844 20.2486 14.8206C20.6607 13.7569 20.8667 12.65 20.8667 11.5C20.8667 9.62167 20.3445 7.90625 19.2999 6.35375C18.2553 4.80125 16.8609 3.68 15.1167 2.99V3.45C15.1167 4.0825 14.8915 4.62396 14.4411 5.07438C13.9907 5.52479 13.4492 5.75 12.8167 5.75H10.5167V8.05C10.5167 8.37583 10.4065 8.64896 10.1861 8.86938C9.96571 9.08979 9.69258 9.2 9.36675 9.2H7.06675V11.5H13.9667C14.2926 11.5 14.5657 11.6102 14.7861 11.8306C15.0065 12.051 15.1167 12.3242 15.1167 12.65V16.1H16.2667C16.7651 16.1 17.2155 16.2485 17.618 16.5456C18.0205 16.8427 18.2984 17.2308 18.4517 17.71Z" fill="#777777"/>
</svg>
