<svg width="20" height="18" viewBox="0 0 20 18" fill="none" xmlns="http://www.w3.org/2000/svg">
<g id="Group">
<path id="Vector" fill-rule="evenodd" clip-rule="evenodd" d="M17.3831 0.166044C13.8938 2.04925 4.20413 7.27778 0.727915 9.15337C0.25971 9.40618 -0.0221802 9.90348 0.00136858 10.4347C0.02561 10.9652 0.351131 11.4362 0.839422 11.6454L5.53394 13.6602L5.51109 16.6045C5.50624 17.1773 5.85531 17.6947 6.38932 17.9038C6.92263 18.1137 7.53074 17.9731 7.91791 17.5506L9.90086 15.3841L14.9548 17.0567C15.3344 17.1828 15.7506 17.1378 16.0949 16.9335C16.4398 16.7298 16.6794 16.387 16.7522 15.9929L19.4028 1.63714C19.4998 1.11284 19.2871 0.579536 18.8563 0.265091C18.4248 -0.0486619 17.852 -0.0867592 17.3831 0.166044ZM17.8264 2.54793L15.3898 15.7415L9.91055 13.9282C9.65151 13.8423 9.36616 13.9172 9.18192 14.118L6.89631 16.6149L6.92055 13.4933L17.8264 2.54793ZM1.38521 10.3724L6.07141 12.383L15.8525 2.56594L1.38521 10.3724Z" fill="white"/>
</g>
</svg>
