<svg width="24" height="24" viewBox="0 0 24 24" fill="none" xmlns="http://www.w3.org/2000/svg">
<path d="M22.35 23.0896L18.8208 19.5862C18.3347 19.895 17.8194 20.1604 17.275 20.3824C16.7305 20.6044 16.1666 20.7829 15.5833 20.9181V18.5438C15.8555 18.4473 16.1229 18.3508 16.3854 18.2543C16.6479 18.1578 16.8958 18.042 17.1291 17.9069L13.25 14.056V20.0784L7.41663 14.2876H2.74997V7.33874H6.4833L0.883301 1.77961L2.51663 0.158203L23.9833 21.4682L22.35 23.0896ZM22.1166 16.3723L20.425 14.693C20.7555 14.0946 21.0034 13.4673 21.1687 12.811C21.334 12.1547 21.4166 11.4791 21.4166 10.7842C21.4166 8.9698 20.8819 7.34839 19.8125 5.92C18.743 4.49162 17.3333 3.52649 15.5833 3.02463V0.650417C17.9944 1.19089 19.9583 2.40212 21.475 4.28412C22.9916 6.16611 23.75 8.33282 23.75 10.7842C23.75 11.8073 23.609 12.7917 23.3271 13.7375C23.0451 14.6833 22.6416 15.5616 22.1166 16.3723ZM18.2083 12.4925L15.5833 9.88667V6.12268C16.4972 6.54734 17.2118 7.18432 17.7271 8.03363C18.2423 8.88294 18.5 9.80946 18.5 10.8132C18.5 11.1027 18.4757 11.3874 18.4271 11.6673C18.3784 11.9472 18.3055 12.2223 18.2083 12.4925ZM13.25 7.57037L10.2166 4.55918L13.25 1.54798V7.57037Z" fill="white"/>
</svg>
