<svg width="18" height="18" viewBox="0 0 18 18" fill="none" xmlns="http://www.w3.org/2000/svg">
<path fill-rule="evenodd" clip-rule="evenodd" d="M4.8 1.2C2.81178 1.2 1.2 2.81178 1.2 4.8V13.2C1.2 13.3154 1.20543 13.4296 1.21606 13.5422L2.57667 11.3652C4.08501 8.95191 7.50621 8.70573 9.34449 10.8783L10.895 12.7107C12.2664 10.6393 15.425 10.6125 16.8 12.7625V9C16.8 8.66862 17.0686 8.4 17.4 8.4C17.7314 8.4 18 8.66862 18 9V13.2C18 15.851 15.851 18 13.2 18H4.8C2.14903 18 0 15.851 0 13.2V4.8C0 2.14903 2.14903 0 4.8 0H9C9.33138 0 9.6 0.268629 9.6 0.6C9.6 0.931371 9.33138 1.2 9 1.2H4.8ZM16.4539 14.7422L15.9365 13.6732C15.0728 11.8887 12.5442 11.9347 11.7206 13.6864L14.229 16.6508C15.2126 16.358 16.02 15.656 16.4539 14.7422ZM4.8 16.8C3.48057 16.8 2.3269 16.0902 1.70008 15.0316C1.70303 15.0271 1.70594 15.0226 1.7088 15.018L3.59427 12.0012C4.67166 10.2774 7.11537 10.1016 8.42844 11.6534L12.7833 16.8H4.8Z" fill="white"/>
<path d="M17.2012 4.04592C16.9549 4.26759 16.5755 4.24761 16.3538 4.00131L14.6998 2.16351V7.19994C14.6998 7.53132 14.4312 7.79994 14.0998 7.79994C13.7684 7.79994 13.4998 7.53132 13.4998 7.19994V2.16351L11.8458 4.00131C11.6241 4.24761 11.2447 4.26759 10.9984 4.04592C10.7521 3.82425 10.7322 3.44487 10.9538 3.19857L12.7619 1.18961C13.4769 0.395129 14.7227 0.395129 15.4378 1.18962L17.2458 3.19857C17.4675 3.44487 17.4475 3.82425 17.2012 4.04592Z" fill="white"/>
</svg>
