<svg width="16" height="16" viewBox="0 0 16 16" fill="none" xmlns="http://www.w3.org/2000/svg">
<path d="M8.00008 10.668C8.83342 10.668 9.54175 10.3763 10.1251 9.79297C10.7084 9.20964 11.0001 8.5013 11.0001 7.66797C11.0001 6.83464 10.7084 6.1263 10.1251 5.54297C9.54175 4.95964 8.83342 4.66797 8.00008 4.66797C7.16675 4.66797 6.45842 4.95964 5.87508 5.54297C5.29175 6.1263 5.00008 6.83464 5.00008 7.66797C5.00008 8.5013 5.29175 9.20964 5.87508 9.79297C6.45842 10.3763 7.16675 10.668 8.00008 10.668ZM8.00008 9.46797C7.50008 9.46797 7.07508 9.29297 6.72508 8.94297C6.37508 8.59297 6.20008 8.16797 6.20008 7.66797C6.20008 7.16797 6.37508 6.74297 6.72508 6.39297C7.07508 6.04297 7.50008 5.86797 8.00008 5.86797C8.50008 5.86797 8.92508 6.04297 9.27508 6.39297C9.62508 6.74297 9.80008 7.16797 9.80008 7.66797C9.80008 8.16797 9.62508 8.59297 9.27508 8.94297C8.92508 9.29297 8.50008 9.46797 8.00008 9.46797ZM8.00008 12.668C6.37786 12.668 4.90008 12.2152 3.56675 11.3096C2.23341 10.4041 1.26675 9.19019 0.666748 7.66797C1.26675 6.14575 2.23341 4.93186 3.56675 4.0263C4.90008 3.12075 6.37786 2.66797 8.00008 2.66797C9.6223 2.66797 11.1001 3.12075 12.4334 4.0263C13.7667 4.93186 14.7334 6.14575 15.3334 7.66797C14.7334 9.19019 13.7667 10.4041 12.4334 11.3096C11.1001 12.2152 9.6223 12.668 8.00008 12.668ZM8.00008 11.3346C9.25564 11.3346 10.4084 11.0041 11.4584 10.343C12.5084 9.68186 13.3112 8.79019 13.8667 7.66797C13.3112 6.54575 12.5084 5.65408 11.4584 4.99297C10.4084 4.33186 9.25564 4.0013 8.00008 4.0013C6.74453 4.0013 5.59175 4.33186 4.54175 4.99297C3.49175 5.65408 2.68897 6.54575 2.13341 7.66797C2.68897 8.79019 3.49175 9.68186 4.54175 10.343C5.59175 11.0041 6.74453 11.3346 8.00008 11.3346Z" fill="white"/>
</svg>
