<svg width="20" height="20" viewBox="0 0 20 20" fill="none" xmlns="http://www.w3.org/2000/svg">
<path d="M13.4173 11.084L12.209 9.87565C12.334 9.22287 12.1465 8.61176 11.6465 8.04232C11.1465 7.47287 10.5007 7.25065 9.70898 7.37565L8.50065 6.16732C8.73676 6.05621 8.97635 5.97287 9.2194 5.91732C9.46246 5.86176 9.72287 5.83398 10.0007 5.83398C11.0423 5.83398 11.9277 6.19857 12.6569 6.92773C13.3861 7.6569 13.7507 8.54232 13.7507 9.58398C13.7507 9.86176 13.7229 10.1222 13.6673 10.3652C13.6118 10.6083 13.5284 10.8479 13.4173 11.084ZM16.084 13.709L14.8757 12.5423C15.4034 12.1395 15.8722 11.6986 16.2819 11.2194C16.6916 10.7402 17.0423 10.1951 17.334 9.58398C16.6395 8.18121 15.643 7.06662 14.3444 6.24023C13.0458 5.41385 11.5979 5.00065 10.0007 5.00065C9.59787 5.00065 9.20204 5.02843 8.81315 5.08398C8.42426 5.13954 8.04232 5.22287 7.66732 5.33398L6.37565 4.04232C6.9451 3.80621 7.52843 3.62912 8.12565 3.51107C8.72287 3.39301 9.34787 3.33398 10.0007 3.33398C12.0979 3.33398 13.9659 3.91385 15.6048 5.07357C17.2437 6.23329 18.4312 7.73676 19.1673 9.58398C18.8479 10.4034 18.4277 11.1638 17.9069 11.8652C17.3861 12.5666 16.7784 13.1812 16.084 13.709ZM16.5007 18.834L13.0007 15.3757C12.5145 15.5284 12.025 15.643 11.5319 15.7194C11.0388 15.7958 10.5284 15.834 10.0007 15.834C7.90343 15.834 6.03537 15.2541 4.39648 14.0944C2.7576 12.9347 1.5701 11.4312 0.833984 9.58398C1.12565 8.84787 1.49371 8.16385 1.93815 7.5319C2.3826 6.89996 2.88954 6.33398 3.45898 5.83398L1.16732 3.50065L2.33398 2.33398L17.6673 17.6673L16.5007 18.834ZM4.62565 7.00065C4.22287 7.36176 3.85482 7.7576 3.52148 8.18815C3.18815 8.61871 2.90343 9.08398 2.66732 9.58398C3.36176 10.9868 4.35829 12.1013 5.6569 12.9277C6.95551 13.7541 8.40343 14.1673 10.0007 14.1673C10.2784 14.1673 10.5493 14.15 10.8132 14.1152C11.077 14.0805 11.3479 14.0423 11.6257 14.0007L10.8757 13.209C10.7229 13.2507 10.577 13.2819 10.4382 13.3027C10.2993 13.3236 10.1534 13.334 10.0007 13.334C8.95898 13.334 8.07357 12.9694 7.3444 12.2402C6.61523 11.5111 6.25065 10.6257 6.25065 9.58398C6.25065 9.43121 6.26107 9.28537 6.2819 9.14648C6.30273 9.0076 6.33398 8.86176 6.37565 8.70898L4.62565 7.00065Z" fill="#999999"/>
</svg>
