<svg width="28" height="28" viewBox="0 0 28 28" fill="none" xmlns="http://www.w3.org/2000/svg">
<path d="M23.1 26.3676L19.5708 22.8384C19.0847 23.1495 18.5694 23.4169 18.025 23.6405C17.4805 23.8641 16.9166 24.044 16.3333 24.1801V21.7884C16.6055 21.6912 16.8729 21.594 17.1354 21.4967C17.3979 21.3995 17.6458 21.2829 17.8791 21.1467L14 17.2676V23.3342L8.16663 17.5009H3.49997V10.5009H7.2333L1.6333 4.90091L3.26663 3.26758L24.7333 24.7342L23.1 26.3676ZM22.8666 19.6009L21.175 17.9092C21.5055 17.3065 21.7534 16.6745 21.9187 16.0134C22.084 15.3523 22.1666 14.6717 22.1666 13.9717C22.1666 12.144 21.6319 10.5106 20.5625 9.07175C19.493 7.63286 18.0833 6.66063 16.3333 6.15508V3.76341C18.7444 4.30786 20.7083 5.52799 22.225 7.42383C23.7416 9.31966 24.5 11.5023 24.5 13.9717C24.5 15.0023 24.359 15.994 24.0771 16.9467C23.7951 17.8995 23.3916 18.7842 22.8666 19.6009ZM18.9583 15.6926L16.3333 13.0676V9.27591C17.2472 9.70369 17.9618 10.3454 18.4771 11.2009C18.9923 12.0565 19.25 12.9898 19.25 14.0009C19.25 14.2926 19.2257 14.5794 19.1771 14.8613C19.1284 15.1433 19.0555 15.4204 18.9583 15.6926ZM14 10.7342L10.9666 7.70091L14 4.66758V10.7342Z" fill="#E3E3E3"/>
</svg>
