<svg width="40" height="40" viewBox="0 0 40 40" fill="none" xmlns="http://www.w3.org/2000/svg">
<rect width="40" height="40" rx="20" fill="#FFC61B"/>
<path d="M13.25 29C12.0125 29 10.9531 28.5594 10.0719 27.6781C9.19062 26.7969 8.75 25.7375 8.75 24.5V15.5C8.75 14.2625 9.19062 13.2031 10.0719 12.3219C10.9531 11.4406 12.0125 11 13.25 11H26.75C27.9875 11 29.0469 11.4406 29.9281 12.3219C30.8094 13.2031 31.25 14.2625 31.25 15.5V24.5C31.25 25.7375 30.8094 26.7969 29.9281 27.6781C29.0469 28.5594 27.9875 29 26.75 29H13.25ZM13.25 15.5H26.75C27.1625 15.5 27.5562 15.5469 27.9312 15.6406C28.3062 15.7344 28.6625 15.8844 29 16.0906V15.5C29 14.8812 28.7797 14.3516 28.3391 13.9109C27.8984 13.4703 27.3687 13.25 26.75 13.25H13.25C12.6312 13.25 12.1016 13.4703 11.6609 13.9109C11.2203 14.3516 11 14.8812 11 15.5V16.0906C11.3375 15.8844 11.6937 15.7344 12.0687 15.6406C12.4437 15.5469 12.8375 15.5 13.25 15.5ZM11.1688 19.1562L23.6844 22.1937C23.8531 22.2312 24.0219 22.2312 24.1906 22.1937C24.3594 22.1562 24.5187 22.0812 24.6687 21.9688L28.5781 18.7062C28.3719 18.425 28.1094 18.1953 27.7906 18.0172C27.4719 17.8391 27.125 17.75 26.75 17.75H13.25C12.7625 17.75 12.3359 17.8766 11.9703 18.1297C11.6047 18.3828 11.3375 18.725 11.1688 19.1562Z" fill="white"/>
</svg>
