<svg width="29" height="24" viewBox="0 0 29 24" fill="none" xmlns="http://www.w3.org/2000/svg">
<g id="Group 213">
<path id="Vector" d="M19.6034 6.8837C20.1204 6.8837 20.6241 6.92346 21.1146 6.98974C20.2132 3.05286 16.0774 0.0703735 11.1065 0.0703735C5.47282 0.0703735 0.899597 3.88796 0.899597 8.59365C0.899597 11.311 2.42401 13.7103 4.79678 15.2744L3.45795 17.9653L7.11653 16.3879C7.89862 16.6662 8.72048 16.8916 9.59535 17.0109C9.47605 16.4939 9.40977 15.9637 9.40977 15.407C9.39652 10.7145 13.9697 6.8837 19.6034 6.8837ZM14.5 3.90121C14.6671 3.90121 14.8326 3.93412 14.987 3.99808C15.1413 4.06203 15.2816 4.15576 15.3998 4.27392C15.518 4.39209 15.6117 4.53237 15.6757 4.68676C15.7396 4.84115 15.7725 5.00663 15.7725 5.17374C15.7725 5.34085 15.7396 5.50632 15.6757 5.66071C15.6117 5.8151 15.518 5.95538 15.3998 6.07355C15.2816 6.19171 15.1413 6.28545 14.987 6.3494C14.8326 6.41335 14.6671 6.44626 14.5 6.44626C14.1625 6.44626 13.8388 6.31219 13.6001 6.07355C13.3615 5.8349 13.2274 5.51123 13.2274 5.17374C13.2274 4.83624 13.3615 4.51257 13.6001 4.27392C13.8388 4.03528 14.1625 3.90121 14.5 3.90121ZM7.69978 6.45952C7.36228 6.45952 7.03861 6.32545 6.79996 6.08681C6.56131 5.84816 6.42723 5.52449 6.42723 5.18699C6.42723 4.8495 6.56131 4.52583 6.79996 4.28718C7.03861 4.04854 7.36228 3.91447 7.69978 3.91447C8.03729 3.91447 8.36096 4.04854 8.59961 4.28718C8.83826 4.52583 8.97233 4.8495 8.97233 5.18699C8.97233 5.52449 8.83826 5.84816 8.59961 6.08681C8.36096 6.32545 8.03729 6.45952 7.69978 6.45952Z" fill="white"/>
<path id="Vector_2" d="M28.1005 15.4064C28.1005 11.6418 24.2961 8.59308 19.6035 8.59308C14.911 8.59308 11.1066 11.6418 11.1066 15.4064C11.1066 19.171 14.911 22.2197 19.6035 22.2197C20.3724 22.2197 21.1147 22.1137 21.8173 21.9546L26.4037 23.9297L24.8131 20.7484C26.8014 19.5023 28.1005 17.5936 28.1005 15.4064ZM17.0452 14.9822C16.7935 14.9822 16.5475 14.9076 16.3382 14.7678C16.1289 14.6279 15.9658 14.4292 15.8695 14.1967C15.7732 13.9641 15.748 13.7083 15.7971 13.4614C15.8462 13.2146 15.9674 12.9879 16.1454 12.8099C16.3233 12.6319 16.5501 12.5107 16.7969 12.4616C17.0438 12.4125 17.2997 12.4377 17.5322 12.534C17.7647 12.6303 17.9635 12.7935 18.1033 13.0027C18.2431 13.212 18.3177 13.458 18.3177 13.7097C18.331 14.4122 17.7477 14.9822 17.0452 14.9822ZM22.1486 14.9822C21.8111 14.9822 21.4875 14.8482 21.2488 14.6095C21.0102 14.3709 20.8761 14.0472 20.8761 13.7097C20.8761 13.3722 21.0102 13.0485 21.2488 12.8099C21.4875 12.5712 21.8111 12.4372 22.1486 12.4372C22.4862 12.4372 22.8098 12.5712 23.0485 12.8099C23.2871 13.0485 23.4212 13.3722 23.4212 13.7097C23.4212 14.0472 23.2871 14.3709 23.0485 14.6095C22.8098 14.8482 22.4862 14.9822 22.1486 14.9822Z" fill="white"/>
</g>
</svg>
