<svg width="31" height="24" viewBox="0 0 31 24" fill="none" xmlns="http://www.w3.org/2000/svg">
<g id="Group 296">
<path id="Vector" d="M5.10895 7.8036C8.83958 4.07399 13.1864 2.37344 14.821 4.01205C15.5434 4.73508 15.612 5.98322 15.1492 7.47507C14.9098 8.22503 15.8542 7.81168 15.8542 7.81168C18.8691 6.54872 21.5006 6.47332 22.4598 7.84803C22.9711 8.5778 22.9213 9.60647 22.4491 10.7967C22.2298 11.3447 22.5137 11.4295 22.9334 11.5548C24.6312 12.0826 26.5228 13.3536 26.5228 15.5994C26.5228 19.3196 21.1683 23.9998 13.1178 23.9998C6.97628 23.9998 0.700256 21.0202 0.700256 16.1205C0.700256 13.5596 2.32005 10.5974 5.10895 7.8036ZM21.432 15.5348C21.1132 12.3155 16.882 10.0966 11.9837 10.584C7.0866 11.0673 3.36942 14.0712 3.68692 17.2892C4.00577 20.5126 8.23687 22.7274 13.1353 22.2441C18.0337 21.7567 21.7468 18.7541 21.432 15.5348ZM7.64357 15.6748C8.65796 13.6175 11.2921 12.4569 13.625 13.0628C16.0358 13.6862 17.2668 15.963 16.2834 18.1779C15.2824 20.4439 12.4047 21.6516 9.96698 20.8626C7.60994 20.1006 6.61304 17.7726 7.64357 15.6748ZM11.2962 16.4531C10.5388 16.134 9.55934 16.4638 9.08982 17.1976C8.61357 17.9341 8.83555 18.8147 9.58894 19.1581C10.3531 19.5041 11.3715 19.1756 11.8437 18.4175C12.3092 17.6527 12.0644 16.7789 11.2962 16.4531ZM13.1608 15.6748C12.8702 15.5617 12.507 15.6991 12.3361 15.9872C12.1707 16.2753 12.2635 16.6039 12.5554 16.7237C12.8501 16.8476 13.2294 16.7075 13.4003 16.4127C13.5658 16.1165 13.4595 15.7852 13.1608 15.6748ZM20.8212 0.172028C22.1669 -0.114802 23.5644 -0.0423595 24.8733 0.382086C26.1822 0.80653 27.3565 1.56805 28.2785 2.59022C29.2011 3.61377 29.8385 4.86225 30.1266 6.2103C30.4147 7.55835 30.3434 8.95853 29.9198 10.2703C29.8743 10.412 29.8013 10.5434 29.7049 10.6568C29.6085 10.7702 29.4906 10.8634 29.358 10.931C29.2254 10.9986 29.0808 11.0392 28.9325 11.0506C28.7841 11.062 28.635 11.0439 28.4937 10.9973C28.2077 10.9042 27.9704 10.7014 27.8337 10.4333C27.697 10.1652 27.6721 9.85382 27.7645 9.56742C28.0662 8.63577 28.1174 7.64103 27.913 6.68328C27.7086 5.72552 27.2558 4.83853 26.6002 4.11151C25.9445 3.38449 25.1091 2.84309 24.178 2.54176C23.2469 2.24043 22.253 2.18981 21.2961 2.39499C21.0091 2.43976 20.7159 2.37288 20.4766 2.2081C20.2373 2.04331 20.0701 1.79311 20.0094 1.50885C19.9486 1.22458 19.9989 0.927824 20.1498 0.679479C20.3008 0.431134 20.541 0.248696 20.8212 0.172028ZM21.6634 4.11303C22.3185 3.97305 22.9988 4.00812 23.636 4.21472C24.2732 4.42132 24.8449 4.79217 25.2934 5.28998C25.742 5.7878 26.0518 6.39503 26.1915 7.05064C26.3313 7.70624 26.2961 8.38712 26.0896 9.02481C26.0521 9.14937 25.9901 9.26517 25.9073 9.36541C25.8244 9.46564 25.7224 9.5483 25.6072 9.60852C25.492 9.66874 25.3659 9.7053 25.2363 9.71606C25.1068 9.72682 24.9764 9.71156 24.8529 9.67118C24.7293 9.6308 24.6151 9.56611 24.5169 9.48091C24.4186 9.39571 24.3384 9.29173 24.2809 9.17507C24.2234 9.0584 24.1898 8.93141 24.182 8.80156C24.1743 8.67171 24.1925 8.54161 24.2357 8.41892C24.3382 8.10736 24.3565 7.7742 24.2887 7.45329C24.2208 7.13238 24.0694 6.83515 23.8496 6.59181C23.629 6.34906 23.3488 6.16838 23.0367 6.06774C22.7247 5.96711 22.3917 5.95004 22.071 6.01823C21.8186 6.07233 21.555 6.02385 21.3383 5.88346C21.1216 5.74307 20.9694 5.52226 20.9154 5.26962C20.8613 5.01697 20.9098 4.75318 21.0501 4.53628C21.1903 4.31938 21.411 4.16713 21.6634 4.11303Z" fill="white"/>
<g id="Vector_2">
<path d="M24.8686 0.382086C23.5597 -0.0423595 22.1623 -0.114802 20.8165 0.172028C20.5364 0.248696 20.2961 0.431134 20.1452 0.679479C19.9942 0.927824 19.9439 1.22458 20.0047 1.50885C20.0655 1.79311 20.2327 2.04331 20.4719 2.2081C20.7112 2.37288 21.0045 2.43976 21.2915 2.39499C22.2483 2.18981 23.2423 2.24043 24.1734 2.54176C25.1045 2.84309 25.9399 3.38449 26.5955 4.11151C27.2512 4.83853 27.704 5.72552 27.9084 6.68328C28.1128 7.64103 28.0615 8.63577 27.7599 9.56742C27.6674 9.85382 27.6923 10.1652 27.829 10.4333C27.9657 10.7014 28.2031 10.9042 28.489 10.9973C28.6304 11.0439 28.7795 11.062 28.9278 11.0506C29.0762 11.0392 29.2208 10.9986 29.3533 10.931C29.4859 10.8634 29.6038 10.7702 29.7002 10.6568C29.7966 10.5434 29.8697 10.412 29.9151 10.2703C30.3387 8.95853 30.41 7.55835 30.1219 6.2103C29.8338 4.86225 29.1965 3.61377 28.2738 2.59022C27.3519 1.56805 26.1775 0.80653 24.8686 0.382086Z" fill="#FFDC22"/>
<path d="M23.6313 4.21472C22.9941 4.00812 22.3138 3.97305 21.6587 4.11303C21.4063 4.16713 21.1857 4.31938 21.0454 4.53628C20.9051 4.75318 20.8567 5.01697 20.9107 5.26962C20.9648 5.52226 21.1169 5.74307 21.3336 5.88346C21.5504 6.02385 21.8139 6.07233 22.0664 6.01823C22.3871 5.95004 22.72 5.96711 23.032 6.06774C23.3441 6.16838 23.6243 6.34906 23.8449 6.59181C24.0647 6.83515 24.2162 7.13238 24.284 7.45329C24.3518 7.7742 24.3335 8.10736 24.231 8.41892C24.1878 8.54161 24.1696 8.67171 24.1774 8.80156C24.1851 8.93141 24.2187 9.0584 24.2762 9.17507C24.3337 9.29173 24.414 9.39571 24.5122 9.48091C24.6104 9.56611 24.7247 9.6308 24.8482 9.67118C24.9718 9.71156 25.1021 9.72682 25.2317 9.71606C25.3612 9.7053 25.4873 9.66874 25.6025 9.60852C25.7177 9.5483 25.8197 9.46564 25.9026 9.36541C25.9854 9.26517 26.0474 9.14937 26.0849 9.02481C26.2915 8.38712 26.3266 7.70624 26.1869 7.05064C26.0471 6.39503 25.7374 5.7878 25.2888 5.28998C24.8402 4.79217 24.2685 4.42132 23.6313 4.21472Z" fill="#FFDC22"/>
</g>
</g>
</svg>
