<svg width="43" height="43" viewBox="0 0 43 43" fill="none" xmlns="http://www.w3.org/2000/svg">
<g filter="url(#filter0_d_2743_20055)">
<path fill-rule="evenodd" clip-rule="evenodd" d="M27.1247 18.1446H22.5999V22.663C22.5999 23.3254 22.0623 23.863 21.3999 23.863C20.7375 23.863 20.1999 23.3254 20.1999 22.663V18.1446H15.6752C15.0128 18.1446 14.4752 17.607 14.4752 16.9446C14.4752 16.2822 15.0128 15.7446 15.6752 15.7446H20.1999V11.2261C20.1999 10.5637 20.7375 10.0261 21.3999 10.0261C22.0623 10.0261 22.5999 10.5637 22.5999 11.2261V15.7446H27.1247C27.7871 15.7446 28.3247 16.2822 28.3247 16.9446C28.3247 17.607 27.7871 18.1446 27.1247 18.1446ZM21.3999 0.565308C9.30555 0.565308 5.02075 4.85011 5.02075 16.9446C5.02075 29.039 9.30555 33.3238 21.3999 33.3238C33.4927 33.3238 37.7791 29.039 37.7791 16.9446C37.7791 4.85011 33.4927 0.565308 21.3999 0.565308Z" fill="url(#paint0_linear_2743_20055)"/>
</g>
<defs>
<filter id="filter0_d_2743_20055" x="0.576308" y="0.565308" width="41.6472" height="41.6473" filterUnits="userSpaceOnUse" color-interpolation-filters="sRGB">
<feFlood flood-opacity="0" result="BackgroundImageFix"/>
<feColorMatrix in="SourceAlpha" type="matrix" values="0 0 0 0 0 0 0 0 0 0 0 0 0 0 0 0 0 0 127 0" result="hardAlpha"/>
<feOffset dy="4.44444"/>
<feGaussianBlur stdDeviation="2.22222"/>
<feComposite in2="hardAlpha" operator="out"/>
<feColorMatrix type="matrix" values="0 0 0 0 0.4375 0 0 0 0 0.328804 0 0 0 0 0 0 0 0 0.2 0"/>
<feBlend mode="normal" in2="BackgroundImageFix" result="effect1_dropShadow_2743_20055"/>
<feBlend mode="normal" in="SourceGraphic" in2="effect1_dropShadow_2743_20055" result="shape"/>
</filter>
<linearGradient id="paint0_linear_2743_20055" x1="21.3999" y1="0.565308" x2="21.3999" y2="33.3238" gradientUnits="userSpaceOnUse">
<stop stop-color="white"/>
<stop offset="1" stop-color="#F0F0F0"/>
</linearGradient>
</defs>
</svg>
