<svg width="34" height="34" viewBox="0 0 34 34" fill="none" xmlns="http://www.w3.org/2000/svg">
<path d="M28.6993 22.3168V15.8274C28.6993 10.2505 28.6993 7.46466 26.9859 5.7318C25.2725 4.00024 22.514 4.00024 16.9995 4.00024C11.4851 4.00024 8.72652 4.00024 7.01316 5.7318C5.2998 7.46336 5.2998 10.2531 5.2998 15.8274V22.3181C5.2998 26.3428 5.2998 28.3565 6.25398 29.2353C6.70897 29.6551 7.28356 29.919 7.89584 29.9892C9.17891 30.1361 10.6778 28.8102 13.6742 26.1595C15.0002 24.9883 15.6619 24.402 16.4275 24.2486C16.8045 24.1706 17.1945 24.1706 17.5715 24.2486C18.3385 24.402 19.0002 24.9883 20.3249 26.1595C23.3213 28.8102 24.8201 30.1361 26.1032 29.9879C26.7142 29.919 27.2901 29.6551 27.7451 29.2353C28.6993 28.3565 28.6993 26.3428 28.6993 22.3168Z" stroke="#444444" stroke-width="1.5"/>
<path d="M20.8994 9.2002H13.0996" stroke="#444444" stroke-width="2" stroke-linecap="round"/>
</svg>
