<svg width="28" height="28" viewBox="0 0 28 28" fill="none" xmlns="http://www.w3.org/2000/svg">
<path fill-rule="evenodd" clip-rule="evenodd" d="M13.8185 25.2722C9.51144 25.2722 5.83325 24.6019 5.83325 21.9178C5.83325 19.2335 9.4881 16.7555 13.8185 16.7555C18.1257 16.7555 21.8039 19.2095 21.8039 21.8937C21.8039 24.5768 18.1491 25.2722 13.8185 25.2722Z" stroke="#444444" stroke-width="1.4" stroke-linecap="round" stroke-linejoin="round"/>
<path fill-rule="evenodd" clip-rule="evenodd" d="M13.8101 13.036C16.6367 13.036 18.9276 10.745 18.9276 7.91854C18.9276 5.09202 16.6367 2.80005 13.8101 2.80005C10.9836 2.80005 8.69168 5.09202 8.69168 7.91854C8.68214 10.7355 10.9571 13.0264 13.7741 13.036C13.7868 13.036 13.7984 13.036 13.8101 13.036Z" stroke="#444444" stroke-width="1.4" stroke-linecap="round" stroke-linejoin="round"/>
</svg>
