<svg width="32" height="32" viewBox="0 0 32 32" fill="none" xmlns="http://www.w3.org/2000/svg">
<path d="M11.5147 18.5879H4.85299C3.28385 18.5879 2 19.8717 2 21.4409V29.9999H11.5147V18.5879Z" stroke="#444444" stroke-width="1.2" stroke-miterlimit="10" stroke-linecap="round" stroke-linejoin="round"/>
<path d="M18.1622 12.8818H14.3534C12.7843 12.8818 11.5005 14.1657 11.5005 15.7348V29.9998H21.0152V15.7348C21.0152 14.1657 19.7456 12.8818 18.1622 12.8818Z" stroke="#444444" stroke-width="1.2" stroke-miterlimit="10" stroke-linecap="round" stroke-linejoin="round"/>
<path d="M27.6769 22.8672H21.0152V29.9997H30.5299V25.7202C30.5299 24.151 29.2461 22.8672 27.6769 22.8672Z" stroke="#444444" stroke-width="1.2" stroke-miterlimit="10" stroke-linecap="round" stroke-linejoin="round"/>
<path d="M17.0068 2.60807L17.7628 4.12016C17.8627 4.33413 18.1337 4.53383 18.3619 4.56236L19.7314 4.79061C20.6015 4.93326 20.8155 5.57516 20.1879 6.18855L19.118 7.25842C18.9325 7.44387 18.8327 7.78624 18.8898 8.02874L19.1893 9.34114C19.4318 10.3825 18.8755 10.7819 17.9625 10.2398L16.6787 9.4838C16.4504 9.34115 16.0653 9.34115 15.837 9.4838L14.5532 10.2398C13.6402 10.7819 13.0839 10.3825 13.3264 9.34114L13.626 8.02874C13.683 7.78624 13.5832 7.4296 13.3977 7.25842L12.3421 6.20283C11.7145 5.57517 11.9142 4.9475 12.7986 4.80485L14.168 4.57664C14.3963 4.53384 14.6673 4.33415 14.7672 4.13444L15.5232 2.62231C15.9369 1.79494 16.5931 1.79497 17.0068 2.60807Z" stroke="#444444" stroke-width="1.2" stroke-linecap="round" stroke-linejoin="round"/>
</svg>
