<svg width="28" height="28" viewBox="0 0 28 28" fill="none" xmlns="http://www.w3.org/2000/svg">
<path d="M8.16675 3.89661V5.83327C8.16675 6.76153 8.5355 7.65177 9.19187 8.30815C9.84825 8.96452 10.7385 9.33327 11.6667 9.33327C12.2856 9.33327 12.8791 9.57911 13.3167 10.0167C13.7542 10.4543 14.0001 11.0478 14.0001 11.6666C14.0001 12.9499 15.0501 13.9999 16.3334 13.9999C16.9523 13.9999 17.5457 13.7541 17.9833 13.3165C18.4209 12.8789 18.6667 12.2854 18.6667 11.6666C18.6667 10.3833 19.7167 9.33327 21.0001 9.33327H24.6984" stroke="#444444" stroke-width="1.5" stroke-linecap="round" stroke-linejoin="round"/>
<path d="M17.028 24.7806L15.7471 20.3539C15.5751 19.7594 15.174 19.2576 14.632 18.9589C14.0901 18.6602 13.4516 18.589 12.8572 18.761C12.2627 18.933 11.6243 18.8618 11.0823 18.5631C10.5404 18.2644 10.1393 17.7626 9.96727 17.1681L9.643 16.0474C9.471 15.453 9.0699 14.9512 8.52794 14.6525C7.98597 14.3537 7.34754 14.2826 6.75308 14.4546L3.44702 15.4111" stroke="#444444" stroke-width="1.5" stroke-linecap="round" stroke-linejoin="round"/>
<path d="M13.9999 25.6667C20.4432 25.6667 25.6666 20.4434 25.6666 14C25.6666 7.55672 20.4432 2.33337 13.9999 2.33337C7.5566 2.33337 2.33325 7.55672 2.33325 14C2.33325 20.4434 7.5566 25.6667 13.9999 25.6667Z" stroke="#444444" stroke-width="1.5" stroke-linecap="round" stroke-linejoin="round"/>
</svg>
