 <svg xmlns="http://www.w3.org/2000/svg" width="51" height="50" viewBox="0 0 51 50" fill="none">
          <path opacity="0.32" d="M25.0076 50C38.8189 50 50.0151 38.8071 50.0151 25C50.0151 11.1929 38.8189 0 25.0076 0C11.1963 0 0 11.1929 0 25C0 38.8071 11.1963 50 25.0076 50Z" fill="#FFD75E"/>
          <path d="M37.1953 27.3477C38.8397 20.386 34.5274 13.4099 27.5637 11.766C20.5999 10.1222 13.6217 14.4331 11.9773 21.3948C10.333 28.3565 14.6452 35.3326 21.609 36.9764C28.5728 38.6203 35.551 34.3094 37.1953 27.3477Z" fill="#FFD75E"/>
          <path d="M25.6595 28.1921C26.2206 28.0443 26.8006 27.9813 27.3802 28.0052L30.9595 28.1531C31.1323 28.1607 31.3013 28.1001 31.4299 27.9843C31.5585 27.8686 31.6364 27.7068 31.6468 27.5342C31.6572 27.3615 31.5994 27.1916 31.4858 27.0612L23.4368 17.7486C23.333 17.6291 23.1879 17.553 23.0306 17.5356C22.8733 17.5181 22.7151 17.5605 22.5876 17.6543C22.4601 17.7481 22.3725 17.8865 22.3423 18.0419L20.0223 30.125C19.989 30.2948 20.0239 30.4709 20.1193 30.6152C20.2148 30.7595 20.3631 30.8605 20.5322 30.8966C20.7015 30.9325 20.8781 30.9006 21.024 30.8076L24.0286 28.9033C24.5325 28.5839 25.0826 28.344 25.6595 28.1921Z" fill="black"/>
        </svg>