<svg xmlns="http://www.w3.org/2000/svg" width="36" height="55" viewBox="0 0 36 55" fill="none">
  <path d="M18 29.9551L18 52.7496" stroke="#555555" stroke-width="2.84932" stroke-linecap="round"/>
  <mask id="path-2-inside-1_2167_7923" fill="white">
    <path d="M18 0.75C27.4417 0.75 35.0956 8.40399 35.0957 17.8457C35.0957 27.2875 27.4418 34.9414 18 34.9414C8.55829 34.9413 0.904297 27.2874 0.904297 17.8457C0.904399 8.40405 8.55835 0.750102 18 0.75ZM18 9.61523C13.454 9.61525 9.76855 13.3006 9.76855 17.8467C9.7686 22.3927 13.454 26.0781 18 26.0781C22.546 26.0781 26.2314 22.3927 26.2314 17.8467C26.2314 13.3006 22.5461 9.61523 18 9.61523Z"/>
  </mask>
  <path d="M18 0.75C27.4417 0.75 35.0956 8.40399 35.0957 17.8457C35.0957 27.2875 27.4418 34.9414 18 34.9414C8.55829 34.9413 0.904297 27.2874 0.904297 17.8457C0.904399 8.40405 8.55835 0.750102 18 0.75ZM18 9.61523C13.454 9.61525 9.76855 13.3006 9.76855 17.8467C9.7686 22.3927 13.454 26.0781 18 26.0781C22.546 26.0781 26.2314 22.3927 26.2314 17.8467C26.2314 13.3006 22.5461 9.61523 18 9.61523Z" fill="#FFC61B"/>
  <path d="M18 0.75V-0.25H18L18 0.75ZM35.0957 17.8457H36.0957V17.8457L35.0957 17.8457ZM18 34.9414L18 35.9414H18V34.9414ZM0.904297 17.8457L-0.0957031 17.8457V17.8457H0.904297ZM18 9.61523V8.61523H18L18 9.61523ZM9.76855 17.8467H8.76855V17.8467L9.76855 17.8467ZM18 26.0781L18 27.0781H18V26.0781ZM26.2314 17.8467L27.2314 17.8467V17.8467H26.2314ZM18 0.75V1.75C26.8894 1.75 34.0956 8.95627 34.0957 17.8457L35.0957 17.8457L36.0957 17.8457C36.0956 7.85171 27.994 -0.25 18 -0.25V0.75ZM35.0957 17.8457H34.0957C34.0957 26.7352 26.8895 33.9414 18 33.9414V34.9414V35.9414C27.9941 35.9414 36.0957 27.8398 36.0957 17.8457H35.0957ZM18 34.9414L18 33.9414C9.11056 33.9413 1.9043 26.7351 1.9043 17.8457H0.904297H-0.0957031C-0.0957031 27.8397 8.00601 35.9413 18 35.9414L18 34.9414ZM0.904297 17.8457L1.9043 17.8457C1.90439 8.95634 9.11064 1.7501 18 1.75L18 0.75L18 -0.25C8.00606 -0.249892 -0.0955951 7.85177 -0.0957031 17.8457L0.904297 17.8457ZM18 9.61523L18 8.61523C12.9017 8.61525 8.76855 12.7484 8.76855 17.8467H9.76855H10.7686C10.7686 13.8529 14.0062 10.6152 18 10.6152L18 9.61523ZM9.76855 17.8467L8.76855 17.8467C8.76861 22.945 12.9017 27.0781 18 27.0781L18 26.0781L18 25.0781C14.0063 25.0781 10.7686 21.8404 10.7686 17.8467L9.76855 17.8467ZM18 26.0781V27.0781C23.0983 27.0781 27.2314 22.945 27.2314 17.8467L26.2314 17.8467L25.2314 17.8467C25.2314 21.8404 21.9937 25.0781 18 25.0781V26.0781ZM26.2314 17.8467H27.2314C27.2314 12.7483 23.0983 8.61523 18 8.61523V9.61523V10.6152C21.9938 10.6152 25.2314 13.8529 25.2314 17.8467H26.2314Z" fill="#FFB956" mask="url(#path-2-inside-1_2167_7923)"/>
</svg>