<svg width="36" height="36" viewBox="0 0 36 36" fill="none" xmlns="http://www.w3.org/2000/svg">
<path d="M17.8002 26L16.5738 24.9024C14.7319 23.239 13.2088 21.8095 12.0044 20.6142C10.7999 19.4186 9.84546 18.3546 9.14102 17.4221C8.43657 16.4898 7.94444 15.6393 7.66463 14.8705C7.38463 14.1019 7.24463 13.322 7.24463 12.5307C7.24463 10.9609 7.7763 9.64664 8.83963 8.58787C9.90315 7.52929 11.2233 7 12.8002 7C13.7702 7 14.6869 7.22584 15.5502 7.67751C16.4135 8.12919 17.1635 8.77693 17.8002 9.62074C18.4369 8.77693 19.1869 8.12919 20.0502 7.67751C20.9135 7.22584 21.8302 7 22.8002 7C24.377 7 25.6972 7.52929 26.7607 8.58787C27.8241 9.64664 28.3557 10.9609 28.3557 12.5307C28.3557 13.322 28.2157 14.1019 27.9357 14.8705C27.6559 15.6393 27.1638 16.4898 26.4594 17.4221C25.7549 18.3546 24.8022 19.4186 23.6013 20.6142C22.4006 21.8095 20.8756 23.239 19.0266 24.9024L17.8002 26Z" stroke="#DC3545" stroke-width="2.11111"/>
</svg>
