<svg width="166" height="141" viewBox="0 0 166 141" fill="none" xmlns="http://www.w3.org/2000/svg">
<path d="M14 112.75H138.5C141.814 112.75 144.5 115.436 144.5 118.75V118.75C144.5 122.064 141.814 124.75 138.5 124.75H48.75C44.4698 124.75 41 128.22 41 132.5V132.5C41 136.78 44.4698 140.25 48.75 140.25H159" stroke="#006FFF" stroke-width="0.8" stroke-dasharray="1 3"/>
<path fill-rule="evenodd" clip-rule="evenodd" d="M82.5 0C109.838 0 132 22.1619 132 49.5C132 73.9742 114.238 94.2981 90.9014 98.2881L83.1963 134.25L75.5381 98.5137C51.4964 95.1296 33 74.4751 33 49.5C33 22.1619 55.1619 0 82.5 0ZM82.5 3C56.8188 3 36 23.8188 36 49.5C36 75.1812 56.8188 96 82.5 96C108.181 96 129 75.1812 129 49.5C129 23.8188 108.181 3 82.5 3Z" fill="url(#paint0_linear_4031_53256)"/>
<path d="M81.7439 17.3066C72.0149 17.3066 64.0449 25.2534 64.0449 34.9547C64.0449 38.7138 65.2433 42.2086 67.2753 45.0802L79.5825 61.7755C81.3066 64.0269 82.4556 63.5998 83.8892 61.6564L97.4674 43.1368C97.7351 42.6365 97.9606 42.1147 98.1413 41.5768C98.9794 39.5287 99.4442 37.2918 99.4442 34.9547C99.4442 25.2534 91.4743 17.3066 81.7439 17.3066ZM81.7439 25.5758C86.9831 25.5758 91.1518 29.73 91.1518 34.9547C91.1518 40.1794 86.9831 44.338 81.7439 44.338C76.5046 44.338 72.3373 40.1794 72.3373 34.9547C72.3373 29.73 76.5061 25.5758 81.7439 25.5758Z" fill="url(#paint1_linear_4031_53256)"/>
<path d="M72.2298 73.5259L57.2863 78.431C63.6098 84.542 71.8992 88.2069 80.6748 88.7715L72.2298 73.5259ZM119.822 57.9113L82.8172 70.0544L92.5564 87.6298C97.7925 86.2514 102.664 83.746 106.832 80.2888C113.707 74.6303 118.318 66.6877 119.822 57.9113ZM46.0075 47.9282C45.277 55.2885 46.7641 62.699 50.2779 69.2076L64.1059 64.6713L46.0075 47.9282ZM116.205 34.5156L108.502 50.104L120 46.3333C119.409 42.2086 118.126 38.2133 116.205 34.5156Z" fill="url(#paint2_linear_4031_53256)"/>
<path d="M11.7798 32.3473C10.6188 26.6135 11.4289 20.6556 14.0786 15.4398C16.7283 10.2241 21.0622 6.05634 26.3775 3.61251C26.4812 3.56528 26.5931 3.53892 26.7069 3.53495C26.8208 3.53098 26.9343 3.54947 27.041 3.58936C27.1476 3.62925 27.2454 3.68977 27.3287 3.76745C27.412 3.84514 27.4792 3.93847 27.5264 4.04212C27.5737 4.14577 27.6 4.2577 27.604 4.37153C27.608 4.48537 27.5895 4.59887 27.5496 4.70556C27.5097 4.81224 27.4492 4.91003 27.3715 4.99333C27.2938 5.07663 27.2005 5.14381 27.0968 5.19104C22.1396 7.47252 18.0978 11.3608 15.6262 16.226C13.1546 21.0913 12.3979 26.6484 13.4788 31.9974C13.5018 32.1089 13.5026 32.2239 13.4811 32.3358C13.4596 32.4476 13.4163 32.5542 13.3537 32.6493C13.2911 32.7445 13.2103 32.8263 13.116 32.8902C13.0218 32.9542 12.9158 32.9989 12.8043 33.0219C12.6927 33.0449 12.5777 33.0456 12.4658 33.0242C12.354 33.0027 12.2474 32.9594 12.1523 32.8968C12.0572 32.8342 11.9753 32.7534 11.9114 32.6591C11.8475 32.5648 11.8027 32.4589 11.7798 32.3473ZM19.5735 28.5104C19.053 25.2602 19.5757 21.9286 21.0666 18.9939C22.5574 16.0592 24.9398 13.6724 27.8717 12.1759C27.9733 12.1171 28.0859 12.0796 28.2026 12.0657C28.3192 12.0518 28.4375 12.0618 28.5501 12.095C28.6628 12.1283 28.7675 12.1842 28.8579 12.2592C28.9482 12.3343 29.0224 12.427 29.0758 12.5316C29.1291 12.6362 29.1607 12.7507 29.1684 12.8679C29.1761 12.9851 29.1599 13.1027 29.1207 13.2134C29.0815 13.3241 29.0202 13.4258 28.9405 13.512C28.8608 13.5983 28.7643 13.6675 28.657 13.7152C26.0519 15.0472 23.9351 17.1694 22.6099 19.778C21.2847 22.3865 20.8191 25.3476 21.2798 28.2369C21.316 28.463 21.2612 28.6943 21.1273 28.88C20.9933 29.0657 20.7913 29.1908 20.5653 29.2278C20.4531 29.2459 20.3384 29.2416 20.2278 29.2154C20.1172 29.1891 20.0128 29.1413 19.9207 29.0746C19.8286 29.008 19.7506 28.9239 19.691 28.8271C19.6314 28.7303 19.5915 28.6227 19.5735 28.5104Z" fill="#FFC300"/>
<path d="M152.809 32.3161C153.97 26.5822 153.16 20.6243 150.51 15.4086C147.861 10.1928 143.527 6.02509 138.211 3.58126C138.108 3.53403 137.996 3.50767 137.882 3.5037C137.768 3.49973 137.655 3.51822 137.548 3.55811C137.441 3.598 137.343 3.65852 137.26 3.7362C137.177 3.81389 137.11 3.90722 137.062 4.01087C137.015 4.11452 136.989 4.22645 136.985 4.34028C136.981 4.45412 136.999 4.56762 137.039 4.67431C137.079 4.78099 137.14 4.87878 137.217 4.96208C137.295 5.04538 137.388 5.11256 137.492 5.15979C142.449 7.44127 146.491 11.3296 148.963 16.1948C151.434 21.06 152.191 26.6172 151.11 31.9661C151.087 32.0777 151.086 32.1927 151.108 32.3045C151.129 32.4164 151.173 32.5229 151.235 32.6181C151.298 32.7132 151.379 32.7951 151.473 32.859C151.567 32.9229 151.673 32.9676 151.785 32.9906C151.896 33.0136 152.011 33.0144 152.123 32.9929C152.235 32.9715 152.341 32.9282 152.437 32.8655C152.532 32.8029 152.614 32.7221 152.677 32.6279C152.741 32.5336 152.786 32.4277 152.809 32.3161ZM145.015 28.4792C145.536 25.2289 145.013 21.8973 143.522 18.9627C142.031 16.028 139.649 13.6411 136.717 12.1447C136.616 12.0859 136.503 12.0483 136.386 12.0344C136.27 12.0205 136.151 12.0305 136.039 12.0638C135.926 12.0971 135.821 12.1529 135.731 12.228C135.641 12.303 135.567 12.3957 135.513 12.5004C135.46 12.605 135.428 12.7194 135.42 12.8366C135.413 12.9538 135.429 13.0714 135.468 13.1822C135.507 13.2929 135.569 13.3945 135.648 13.4808C135.728 13.5671 135.825 13.6362 135.932 13.684C138.537 15.0159 140.654 17.1381 141.979 19.7467C143.304 22.3553 143.77 25.3163 143.309 28.2057C143.273 28.4318 143.328 28.663 143.462 28.8487C143.596 29.0345 143.798 29.1596 144.024 29.1966C144.136 29.2146 144.25 29.2104 144.361 29.1841C144.472 29.1578 144.576 29.11 144.668 29.0434C144.76 28.9768 144.838 28.8927 144.898 28.7959C144.957 28.699 144.997 28.5914 145.015 28.4792Z" fill="#FFC300"/>
<circle cx="159" cy="127" r="2.67857" fill="#8B0000"/>
<path d="M159 129.232C158.408 129.232 157.84 128.997 157.422 128.578C157.003 128.16 156.768 127.592 156.768 127C156.768 126.408 157.003 125.84 157.422 125.422C157.84 125.003 158.408 124.768 159 124.768C159.592 124.768 160.16 125.003 160.578 125.422C160.997 125.84 161.232 126.408 161.232 127C161.232 127.592 160.997 128.16 160.578 128.578C160.16 128.997 159.592 129.232 159 129.232ZM152.75 127C152.75 131.688 159 138.607 159 138.607C159 138.607 165.25 131.688 165.25 127C165.25 123.545 162.455 120.75 159 120.75C155.545 120.75 152.75 123.545 152.75 127Z" fill="#D22F27"/>
<rect x="0.270833" y="106.521" width="12.4583" height="12.4583" rx="6.22917" stroke="#006FFF" stroke-opacity="0.64" stroke-width="0.541667"/>
<path d="M10.8252 112.75L3.25781 109.686L4.78988 112.75L3.25781 115.814L10.8252 112.75Z" fill="#006FFF"/>
<defs>
<linearGradient id="paint0_linear_4031_53256" x1="82.5" y1="0" x2="82.5" y2="134.25" gradientUnits="userSpaceOnUse">
<stop stop-color="#FFC61B"/>
<stop offset="1" stop-color="#FF9500"/>
</linearGradient>
<linearGradient id="paint1_linear_4031_53256" x1="81.7446" y1="17.3066" x2="81.7446" y2="63.2956" gradientUnits="userSpaceOnUse">
<stop stop-color="#FFC61B"/>
<stop offset="1" stop-color="#FF9500"/>
</linearGradient>
<linearGradient id="paint2_linear_4031_53256" x1="82.9132" y1="34.5156" x2="82.9132" y2="88.7715" gradientUnits="userSpaceOnUse">
<stop stop-color="#FFC61B"/>
<stop offset="1" stop-color="#FF9500"/>
</linearGradient>
</defs>
</svg>
