<svg width="20" height="20" viewBox="0 0 20 20" fill="none" xmlns="http://www.w3.org/2000/svg">
<g clip-path="url(#clip0_4031_52185)">
<path d="M10.0002 1.11133C8.24217 1.11133 6.52359 1.63265 5.06182 2.60938C3.60005 3.5861 2.46074 4.97435 1.78796 6.59859C1.11518 8.22282 0.93915 10.0101 1.28213 11.7344C1.62511 13.4586 2.47169 15.0425 3.71483 16.2856C4.95796 17.5287 6.54181 18.3753 8.26609 18.7183C9.99036 19.0613 11.7776 18.8853 13.4019 18.2125C15.0261 17.5397 16.4143 16.4004 17.3911 14.9386C18.3678 13.4768 18.8891 11.7583 18.8891 10.0002C18.8891 7.64274 17.9526 5.38181 16.2856 3.71482C14.6186 2.04783 12.3577 1.11133 10.0002 1.11133ZM14.4447 13.3891C14.592 13.5364 14.6748 13.7363 14.6748 13.9447C14.6748 14.153 14.592 14.3529 14.4447 14.5002C14.2973 14.6476 14.0975 14.7303 13.8891 14.7303C13.6807 14.7303 13.4809 14.6476 13.3336 14.5002L10.0002 11.1669L6.66689 14.5113C6.59393 14.5843 6.50732 14.6422 6.412 14.6816C6.31667 14.7211 6.21451 14.7414 6.11133 14.7414C6.00816 14.7414 5.90599 14.7211 5.81067 14.6816C5.71535 14.6422 5.62873 14.5843 5.55578 14.5113C5.48282 14.4384 5.42495 14.3518 5.38546 14.2564C5.34598 14.1611 5.32566 14.0589 5.32566 13.9558C5.32566 13.8526 5.34598 13.7504 5.38546 13.6551C5.42495 13.5598 5.48282 13.4732 5.55578 13.4002L8.88911 10.0447L5.46133 6.58911C5.31399 6.44176 5.23121 6.24192 5.23121 6.03355C5.23121 5.82518 5.31399 5.62534 5.46133 5.47799C5.60868 5.33065 5.80851 5.24788 6.01689 5.24788C6.22526 5.24788 6.4251 5.33065 6.57244 5.47799L10.0002 8.94466L13.428 5.51688C13.501 5.44393 13.5876 5.38605 13.6829 5.34657C13.7782 5.30709 13.8804 5.28677 13.9836 5.28677C14.0867 5.28677 14.1889 5.30709 14.2842 5.34657C14.3795 5.38605 14.4662 5.44393 14.5391 5.51688C14.6121 5.58984 14.6699 5.67645 14.7094 5.77177C14.7489 5.8671 14.7692 5.96926 14.7692 6.07244C14.7692 6.17562 14.7489 6.27778 14.7094 6.3731C14.6699 6.46843 14.6121 6.55504 14.5391 6.628L11.1113 10.0447L14.4447 13.3891Z" fill="#8C8C8C"/>
</g>
<defs>
<clipPath id="clip0_4031_52185">
<rect width="20" height="20" fill="white"/>
</clipPath>
</defs>
</svg>
