<svg width="37" height="36" viewBox="0 0 37 36" fill="none" xmlns="http://www.w3.org/2000/svg">
<path d="M26.1667 6C25.0471 6.00188 23.9657 6.40737 23.1209 7.14208C22.2761 7.8768 21.7245 8.89148 21.5673 10H9.50008C9.14646 10 8.80732 10.1405 8.55727 10.3905C8.30722 10.6406 8.16675 10.9797 8.16675 11.3333V12.1143C8.16674 12.2894 8.20123 12.4628 8.26824 12.6246C8.33525 12.7864 8.43347 12.9334 8.55729 13.0572L16.5573 21.0572C16.6411 21.13 16.7339 21.1917 16.8336 21.2406V28.6667H11.5001C11.3233 28.6667 11.1537 28.7369 11.0287 28.8619C10.9037 28.987 10.8334 29.1565 10.8334 29.3333C10.8334 29.5101 10.9037 29.6797 11.0287 29.8047C11.1537 29.9298 11.3233 30 11.5001 30H23.5001C23.6769 30 23.8465 29.9298 23.9715 29.8047C24.0965 29.6797 24.1667 29.5101 24.1667 29.3333C24.1667 29.1565 24.0965 28.987 23.9715 28.8619C23.8465 28.7369 23.6769 28.6667 23.5001 28.6667H18.1669V21.2405C18.2664 21.1916 18.3592 21.13 18.4429 21.0572L24.4901 15.01C25.1289 15.257 25.8142 15.3603 26.4974 15.3124C27.1806 15.2645 27.8449 15.0667 28.443 14.733C29.041 14.3994 29.5583 13.938 29.9578 13.3818C30.3574 12.8255 30.6295 12.1881 30.7548 11.5148C30.8801 10.8415 30.8555 10.1488 30.6828 9.48609C30.51 8.82336 30.1934 8.20683 29.7554 7.68034C29.3174 7.15385 28.7687 6.73034 28.1485 6.43991C27.5282 6.14949 26.8516 5.99929 26.1667 6ZM17.5001 20.1143L12.7191 15.3333H22.2811L17.5001 20.1143ZM23.6144 14H11.3857L9.50008 12.1143V11.3333H25.5001V12.1143L23.6144 14ZM26.1667 14C25.9635 13.9981 25.7609 13.9776 25.5614 13.9387L26.4429 13.0572C26.5667 12.9333 26.6649 12.7864 26.7319 12.6246C26.7989 12.4628 26.8334 12.2894 26.8334 12.1143V11.3333C26.8334 10.9797 26.6929 10.6406 26.4429 10.3905C26.1928 10.1405 25.8537 10 25.5001 10H22.9009C23.027 9.38202 23.3259 8.81252 23.7628 8.35763C24.1997 7.90275 24.7567 7.58115 25.3691 7.4302C25.9815 7.27926 26.6242 7.30515 27.2224 7.50488C27.8207 7.7046 28.35 8.06997 28.7489 8.55853C29.1478 9.04709 29.3999 9.6388 29.4759 10.2649C29.5519 10.891 29.4487 11.5259 29.1783 12.0957C28.9079 12.6655 28.4814 13.1469 27.9483 13.484C27.4153 13.8211 26.7975 14 26.1667 14Z" fill="white"/>
</svg>
