<svg width="23" height="28" viewBox="0 0 23 28" fill="none" xmlns="http://www.w3.org/2000/svg">
<path fill-rule="evenodd" clip-rule="evenodd" d="M3.29409 0C1.79715 0 0.564697 1.23244 0.564697 2.72939V25.2706C0.564697 26.7676 1.79715 28 3.29409 28H20.206C21.703 28 22.9354 26.7676 22.9354 25.2706V2.72939C22.9354 1.23244 21.703 0 20.206 0H3.29409ZM3.29409 1.64857H20.206C20.8191 1.64857 21.2885 2.11637 21.2885 2.72939V25.2706C21.2885 25.8836 20.8191 26.353 20.206 26.353H3.29409C2.68107 26.353 2.21327 25.8836 2.21327 25.2706V2.72939C2.21327 2.11637 2.68107 1.64857 3.29409 1.64857ZM11.7509 4.79775C7.87226 4.79775 4.71105 7.95735 4.71105 11.8359C4.71105 15.7145 7.87226 18.8758 11.7509 18.8758C15.6295 18.8758 18.7891 15.7145 18.7891 11.8359C18.7891 7.95735 15.6295 4.79775 11.7509 4.79775ZM11.7509 6.44471C11.8155 6.44471 11.9264 6.46899 12.1208 6.67472C12.3152 6.88045 12.5436 7.25037 12.7416 7.74589C13.0528 8.52459 13.2857 9.5997 13.3721 10.8146H10.128C10.2144 9.5997 10.4489 8.52459 10.7601 7.74589C10.9581 7.25037 11.1914 6.88046 11.3858 6.67472C11.5802 6.46899 11.6862 6.44471 11.7509 6.44471ZM14.2374 7.04463C15.6798 7.79024 16.7381 9.16765 17.052 10.8146H15.0271C14.9416 9.41378 14.6792 8.14859 14.2728 7.13148C14.261 7.10192 14.2494 7.07367 14.2374 7.04463ZM9.26111 7.04775C9.24975 7.07545 9.23855 7.10343 9.22735 7.13138C8.82089 8.14848 8.56013 9.41367 8.47464 10.8145H6.45453C6.76737 9.16949 7.82267 7.79393 9.26111 7.04775ZM6.3934 12.4631H8.45533C8.51272 14.0193 8.78313 15.4239 9.22734 16.5355C9.23936 16.5657 9.25196 16.5958 9.26432 16.6256C7.71037 15.8209 6.60198 14.2834 6.3934 12.4631ZM10.1055 12.4631H13.3962C13.3367 13.8391 13.0861 15.0655 12.7416 15.9275C12.5436 16.423 12.3152 16.7913 12.1208 16.9971C11.9264 17.2028 11.8155 17.2287 11.7509 17.2287C11.6862 17.2287 11.5802 17.2028 11.3858 16.9971C11.1914 16.7914 10.9581 16.423 10.7601 15.9275C10.4156 15.0655 10.165 13.8391 10.1055 12.4631ZM15.0464 12.4631H17.1131C16.9039 14.2851 15.7919 15.823 14.2342 16.6272C14.2469 16.5963 14.2603 16.5667 14.2728 16.5355C14.717 15.4239 14.989 14.0193 15.0464 12.4631ZM7.45331 21.5568C7.34504 21.557 7.23786 21.5786 7.13793 21.6202C7.038 21.6619 6.94726 21.7229 6.87092 21.7997C6.79459 21.8765 6.73414 21.9676 6.69304 22.0677C6.65195 22.1679 6.63102 22.2752 6.63144 22.3835C6.63229 22.6011 6.7192 22.8094 6.8732 22.9631C7.02719 23.1168 7.23575 23.2033 7.45331 23.2038H16.0484C16.1566 23.2042 16.2637 23.1833 16.3638 23.1423C16.4639 23.1013 16.5549 23.041 16.6316 22.9648C16.7084 22.8887 16.7694 22.7981 16.8112 22.6984C16.853 22.5986 16.8747 22.4916 16.8751 22.3835C16.8755 22.2748 16.8544 22.1671 16.813 22.0666C16.7717 21.9661 16.7108 21.8748 16.6339 21.798C16.5571 21.7211 16.4658 21.6602 16.3653 21.6189C16.2648 21.5775 16.1571 21.5564 16.0484 21.5568H7.45331Z" fill="white"/>
</svg>
