<svg width="28" height="28" viewBox="0 0 28 28" fill="none" xmlns="http://www.w3.org/2000/svg">
<path d="M3.5 23.3327V13.9993C3.5 13.3805 3.74583 12.787 4.18342 12.3494C4.621 11.9118 5.21449 11.666 5.83333 11.666H22.1667C22.7855 11.666 23.379 11.9118 23.8166 12.3494C24.2542 12.787 24.5 13.3805 24.5 13.9993V23.3327" stroke="white" stroke-width="2" stroke-linecap="round" stroke-linejoin="round"/>
<path d="M5.83325 11.666V6.99935C5.83325 6.38051 6.07908 5.78702 6.51667 5.34943C6.95425 4.91185 7.54775 4.66602 8.16659 4.66602H19.8333C20.4521 4.66602 21.0456 4.91185 21.4832 5.34943C21.9208 5.78702 22.1666 6.38051 22.1666 6.99935V11.666" stroke="white" stroke-width="2" stroke-linecap="round" stroke-linejoin="round"/>
<path d="M3.5 21H24.5" stroke="white" stroke-width="2" stroke-linecap="round" stroke-linejoin="round"/>
</svg>
