<svg width="29" height="24" viewBox="0 0 29 24" fill="none" xmlns="http://www.w3.org/2000/svg">
<path d="M7.47461 3.36125C7.47461 5.22115 8.97597 6.72251 10.8359 6.72251C12.6958 6.72251 14.1971 5.22115 14.1971 3.36125C14.1971 1.50136 12.6958 0 10.8359 0C8.97597 0 7.47461 1.50136 7.47461 3.36125ZM12.8526 3.36125C12.8526 4.48167 11.9563 5.37801 10.8359 5.37801C9.71545 5.37801 8.81911 4.48167 8.81911 3.36125C8.81911 2.24084 9.71545 1.3445 10.8359 1.3445C11.9563 1.3445 12.8526 2.24084 12.8526 3.36125Z" fill="white"/>
<path d="M20.0234 15.6855C20.0234 17.5454 21.5248 19.0467 23.3847 19.0467C25.2446 19.0467 26.7459 17.5454 26.7459 15.6855C26.7459 13.8256 25.2446 12.3242 23.3847 12.3242C21.5248 12.3242 20.0234 13.8256 20.0234 15.6855ZM25.4014 15.6855C25.4014 16.8059 24.5051 17.7022 23.3847 17.7022C22.2643 17.7022 21.3679 16.8059 21.3679 15.6855C21.3679 14.5651 22.2643 13.6687 23.3847 13.6687C24.5051 13.6687 25.4014 14.5651 25.4014 15.6855Z" fill="white"/>
<path d="M28.3145 21.893C28.3145 20.795 27.4181 19.9434 26.2977 19.9434H26.2753L21.5696 19.921L18.6341 16.9631C17.6481 15.9996 16.3484 15.4618 14.9815 15.4618H1.93984L5.25627 8.82889C5.70444 7.95496 6.78004 7.59643 7.65397 8.02219C7.87805 8.13423 8.05732 8.26868 8.21418 8.44795C8.21418 8.47036 8.23658 8.47036 8.23658 8.49276L14.3317 14.5878C14.6006 14.8567 15.0263 14.8567 15.2728 14.5878C15.5417 14.3189 15.5417 13.8932 15.2728 13.6467L9.22255 7.55161C8.95365 7.2379 8.63993 6.9914 8.2814 6.81214C6.73522 6.02784 4.85292 6.67769 4.06863 8.22386L0.259209 15.8203C0.147167 16.022 0.169575 16.2685 0.281617 16.4701C0.393659 16.6718 0.617743 16.8063 0.864235 16.8063H14.9815C15.9899 16.8063 16.9534 17.2096 17.6705 17.9267L20.8301 21.0863C20.9645 21.2207 21.1214 21.2879 21.3007 21.2879H26.2977C26.6787 21.2879 26.97 21.5344 26.97 21.893C26.97 22.2739 26.6563 22.6324 26.2977 22.6324H20.7629C20.718 22.6324 20.6956 22.6324 20.6508 22.6324H20.6284C20.5612 22.61 20.4715 22.5876 20.4267 22.5652C20.3595 22.5204 20.2923 22.4756 20.2475 22.4084C20.2251 22.3859 20.2251 22.3859 20.2026 22.3635L17.9842 20.1451C17.424 19.5849 16.7069 19.2936 15.9227 19.2936H5.74926C5.36831 19.2936 5.07701 19.5849 5.07701 19.9658C5.07701 20.3468 5.36831 20.6381 5.74926 20.6381H15.9227C16.3484 20.6381 16.7294 20.795 17.0431 21.0863L19.2391 23.2823C19.3959 23.4615 19.5752 23.6184 19.7769 23.7304C19.9562 23.8425 20.1802 23.9097 20.3819 23.9545H20.4043C20.5388 23.9769 20.6508 23.9993 20.7629 23.9993C20.7629 23.9993 20.7629 23.9993 20.7853 23.9993H26.3425C27.4181 23.9769 28.3145 23.0134 28.3145 21.893Z" fill="white"/>
<path d="M8.28144 11.0914C8.14699 11.1587 8.03495 11.2707 7.99013 11.4052L7.0938 13.1978C6.93694 13.5339 7.07139 13.9373 7.38511 14.0942C7.72123 14.251 8.12458 14.1166 8.28144 13.8028L8.77443 12.8169L10.5447 14.5871C10.6791 14.7216 10.8584 14.7888 11.0153 14.7888C11.1945 14.7888 11.3962 14.7216 11.5307 14.5647C11.7547 14.2958 11.7323 13.8701 11.4634 13.6236L9.06573 11.2259C8.86406 11.0242 8.55034 10.957 8.28144 11.0914Z" fill="white"/>
<path d="M2.38807 20.616C2.75934 20.616 3.06032 20.315 3.06032 19.9437C3.06032 19.5725 2.75934 19.2715 2.38807 19.2715C2.0168 19.2715 1.71582 19.5725 1.71582 19.9437C1.71582 20.315 2.0168 20.616 2.38807 20.616Z" fill="white"/>
</svg>
