<svg width="20" height="18" viewBox="0 0 20 18" fill="none" xmlns="http://www.w3.org/2000/svg">
<path id="Vector" d="M9.86425 18L13.9819 7.2H15.8824L20 18H18.0995L17.1267 15.255H12.7376L11.7647 18H9.86425ZM2.71493 15.3L1.44796 14.04L6.0181 9.495C5.4902 8.97 5.01131 8.37 4.58145 7.695C4.15158 7.02 3.75566 6.255 3.39367 5.4H5.29412C5.59578 5.985 5.89744 6.495 6.1991 6.93C6.50075 7.365 6.86275 7.8 7.28507 8.235C7.78281 7.74 8.2994 7.04625 8.83484 6.15375C9.37029 5.26125 9.77376 4.41 10.0452 3.6H0V1.8H6.33484V0H8.1448V1.8H14.4796V3.6H11.8552C11.5385 4.68 11.0633 5.79 10.4299 6.93C9.79638 8.07 9.17044 8.94 8.55204 9.54L10.724 11.745L10.0452 13.59L7.28507 10.7775L2.71493 15.3ZM13.3032 13.68H16.5611L14.9321 9.09L13.3032 13.68Z" fill="white"/>
</svg>
