<svg width="20" height="20" viewBox="0 0 20 20" fill="none" xmlns="http://www.w3.org/2000/svg">
<path id="Vector" d="M9.4375 10.5833C10.1458 11.2917 10.9375 11.8993 11.8125 12.4062C12.6875 12.9132 13.625 13.3056 14.625 13.5833C14.0694 14.2917 13.3889 14.8438 12.5833 15.2396C11.7778 15.6354 10.9236 15.8333 10.0208 15.8333C8.39583 15.8333 7.01736 15.2674 5.88542 14.1354C4.75347 13.0035 4.1875 11.625 4.1875 10C4.1875 9.09722 4.38542 8.24306 4.78125 7.4375C5.17708 6.63194 5.72917 5.95139 6.4375 5.39583C6.71528 6.39583 7.10764 7.33333 7.61458 8.20833C8.12153 9.08333 8.72917 9.875 9.4375 10.5833ZM15.4792 12.0833C15.2014 12.0139 14.9271 11.9375 14.6562 11.8542C14.3854 11.7708 14.1181 11.6736 13.8542 11.5625C13.9653 11.3125 14.0451 11.059 14.0938 10.8021C14.1424 10.5451 14.1667 10.2778 14.1667 10C14.1667 8.84722 13.7604 7.86458 12.9479 7.05208C12.1354 6.23958 11.1528 5.83333 10 5.83333C9.72222 5.83333 9.45486 5.85764 9.19792 5.90625C8.94097 5.95486 8.6875 6.03472 8.4375 6.14583C8.32639 5.88194 8.23264 5.61806 8.15625 5.35417C8.07986 5.09028 8.00694 4.81944 7.9375 4.54167C8.27083 4.41667 8.61111 4.32292 8.95833 4.26042C9.30556 4.19792 9.65972 4.16667 10.0208 4.16667C11.6458 4.16667 13.0243 4.73264 14.1562 5.86458C15.2882 6.99653 15.8542 8.375 15.8542 10C15.8542 10.3611 15.8229 10.7153 15.7604 11.0625C15.6979 11.4097 15.6042 11.75 15.4792 12.0833ZM9.16667 2.5V0H10.8333V2.5H9.16667ZM9.16667 20V17.5H10.8333V20H9.16667ZM15.8958 5.29167L14.7083 4.10417L16.4792 2.35417L17.6667 3.52083L15.8958 5.29167ZM3.52083 17.6458L2.33333 16.4792L4.10417 14.7083L5.29167 15.8958L3.52083 17.6458ZM17.5 10.8333V9.16667H20V10.8333H17.5ZM0 10.8333V9.16667H2.5V10.8333H0ZM16.4792 17.6667L14.7083 15.8958L15.8958 14.7083L17.6458 16.4792L16.4792 17.6667ZM4.10417 5.29167L2.35417 3.52083L3.52083 2.33333L5.29167 4.10417L4.10417 5.29167Z" fill="white"/>
</svg>
