<svg width="19" height="17" viewBox="0 0 19 17" fill="none" xmlns="http://www.w3.org/2000/svg">
<path id="Vector" d="M15.381 17L14.1143 15.7474L15.5393 14.3158H11.7619V12.5263H15.5393L14.0917 11.0947L15.381 9.8421L19 13.4211L15.381 17ZM1.80952 14.3158C1.3119 14.3158 0.885913 14.1406 0.531548 13.7901C0.177183 13.4397 0 13.0184 0 12.5263V1.78947C0 1.29737 0.177183 0.876097 0.531548 0.525658C0.885913 0.175219 1.3119 0 1.80952 0H16.2857C16.7833 0 17.2093 0.175219 17.5637 0.525658C17.9181 0.876097 18.0952 1.29737 18.0952 1.78947V8.76842C17.6881 8.52982 17.2546 8.35088 16.7946 8.23158C16.3347 8.11228 15.8635 8.05263 15.381 8.05263C13.873 8.05263 12.5913 8.57456 11.5357 9.61842C10.4802 10.6623 9.95238 11.9298 9.95238 13.4211V14.3158H1.80952ZM9.04762 8.05263L16.2857 3.57895V1.78947L9.04762 6.26316L1.80952 1.78947V3.57895L9.04762 8.05263Z" fill="white"/>
</svg>
