<svg width="10" height="18" viewBox="0 0 10 18" fill="none" xmlns="http://www.w3.org/2000/svg">
<path id="Vector" d="M3.7156 12.3158C3.7156 11.0368 3.82645 10.1171 4.04817 9.55658C4.26988 8.99605 4.74006 8.38421 5.45872 7.72105C6.08563 7.15263 6.56346 6.65921 6.8922 6.24079C7.22095 5.82237 7.38532 5.34474 7.38532 4.80789C7.38532 4.16053 7.17508 3.62368 6.75459 3.19737C6.3341 2.77105 5.74924 2.55789 5 2.55789C4.22018 2.55789 3.62768 2.80263 3.22248 3.29211C2.81728 3.78158 2.53058 4.27895 2.36239 4.78421L0 3.74211C0.321101 2.73158 0.909786 1.85526 1.76605 1.11316C2.62232 0.371053 3.70031 0 5 0C6.6055 0 7.84021 0.461842 8.70413 1.38553C9.56804 2.30921 10 3.41842 10 4.71316C10 5.50263 9.83563 6.17763 9.50688 6.73816C9.17813 7.29868 8.66208 7.93421 7.95872 8.64474C7.20948 9.38684 6.75459 9.95132 6.59404 10.3382C6.43349 10.725 6.35321 11.3842 6.35321 12.3158H3.7156ZM5 18C4.49541 18 4.06346 17.8145 3.70413 17.4434C3.3448 17.0724 3.16514 16.6263 3.16514 16.1053C3.16514 15.5842 3.3448 15.1382 3.70413 14.7671C4.06346 14.3961 4.49541 14.2105 5 14.2105C5.50459 14.2105 5.93654 14.3961 6.29587 14.7671C6.6552 15.1382 6.83486 15.5842 6.83486 16.1053C6.83486 16.6263 6.6552 17.0724 6.29587 17.4434C5.93654 17.8145 5.50459 18 5 18Z" fill="white"/>
</svg>
