<svg width="16" height="18" viewBox="0 0 16 18" fill="none" xmlns="http://www.w3.org/2000/svg">
<path id="Vector" d="M13.3333 17.5C12.5926 17.5 11.963 17.2521 11.4444 16.7563C10.9259 16.2604 10.6667 15.6583 10.6667 14.95C10.6667 14.865 10.6889 14.6667 10.7333 14.355L4.48889 10.87C4.25185 11.0825 3.97778 11.249 3.66667 11.3694C3.35556 11.4898 3.02222 11.55 2.66667 11.55C1.92593 11.55 1.2963 11.3021 0.777778 10.8063C0.259259 10.3104 0 9.70833 0 9C0 8.29167 0.259259 7.68958 0.777778 7.19375C1.2963 6.69792 1.92593 6.45 2.66667 6.45C3.02222 6.45 3.35556 6.51021 3.66667 6.63063C3.97778 6.75104 4.25185 6.9175 4.48889 7.13L10.7333 3.645C10.7037 3.54583 10.6852 3.45021 10.6778 3.35812C10.6704 3.26604 10.6667 3.16333 10.6667 3.05C10.6667 2.34167 10.9259 1.73958 11.4444 1.24375C11.963 0.747917 12.5926 0.5 13.3333 0.5C14.0741 0.5 14.7037 0.747917 15.2222 1.24375C15.7407 1.73958 16 2.34167 16 3.05C16 3.75833 15.7407 4.36042 15.2222 4.85625C14.7037 5.35208 14.0741 5.6 13.3333 5.6C12.9778 5.6 12.6444 5.53979 12.3333 5.41937C12.0222 5.29896 11.7481 5.1325 11.5111 4.92L5.26667 8.405C5.2963 8.50417 5.31482 8.59979 5.32222 8.69188C5.32963 8.78396 5.33333 8.88667 5.33333 9C5.33333 9.11333 5.32963 9.21604 5.32222 9.30813C5.31482 9.40021 5.2963 9.49583 5.26667 9.595L11.5111 13.08C11.7481 12.8675 12.0222 12.701 12.3333 12.5806C12.6444 12.4602 12.9778 12.4 13.3333 12.4C14.0741 12.4 14.7037 12.6479 15.2222 13.1438C15.7407 13.6396 16 14.2417 16 14.95C16 15.6583 15.7407 16.2604 15.2222 16.7563C14.7037 17.2521 14.0741 17.5 13.3333 17.5Z" fill="white"/>
</svg>
