<svg width="21" height="17" viewBox="0 0 21 17" fill="none" xmlns="http://www.w3.org/2000/svg">
<path id="Vector" d="M4.5 16.5C3.4 16.5 2.45833 16.1083 1.675 15.325C0.891667 14.5417 0.5 13.6 0.5 12.5V4.5C0.5 3.4 0.891667 2.45833 1.675 1.675C2.45833 0.891667 3.4 0.5 4.5 0.5H16.5C17.6 0.5 18.5417 0.891667 19.325 1.675C20.1083 2.45833 20.5 3.4 20.5 4.5V12.5C20.5 13.6 20.1083 14.5417 19.325 15.325C18.5417 16.1083 17.6 16.5 16.5 16.5H4.5ZM4.5 4.5H16.5C16.8667 4.5 17.2167 4.54167 17.55 4.625C17.8833 4.70833 18.2 4.84167 18.5 5.025V4.5C18.5 3.95 18.3042 3.47917 17.9125 3.0875C17.5208 2.69583 17.05 2.5 16.5 2.5H4.5C3.95 2.5 3.47917 2.69583 3.0875 3.0875C2.69583 3.47917 2.5 3.95 2.5 4.5V5.025C2.8 4.84167 3.11667 4.70833 3.45 4.625C3.78333 4.54167 4.13333 4.5 4.5 4.5ZM2.65 7.75L13.775 10.45C13.925 10.4833 14.075 10.4833 14.225 10.45C14.375 10.4167 14.5167 10.35 14.65 10.25L18.125 7.35C17.9417 7.1 17.7083 6.89583 17.425 6.7375C17.1417 6.57917 16.8333 6.5 16.5 6.5H4.5C4.06667 6.5 3.6875 6.6125 3.3625 6.8375C3.0375 7.0625 2.8 7.36667 2.65 7.75Z" fill="white"/>
</svg>
