<svg width="24" height="24" viewBox="0 0 24 24" fill="none" xmlns="http://www.w3.org/2000/svg">
<g clip-path="url(#clip0_3084_11578)">
<path d="M12 23.4375C19.6125 23.4375 22.5 21.8661 22.5 16.1042M1.5 13.439V16.6751C1.5 17.5839 2.08747 18.389 2.97157 18.6095C3.82522 18.8227 4.94662 19.0626 6.04912 19.1779C6.80407 19.2565 7.4682 18.8149 7.5942 18.0685C7.70392 17.4174 7.8 16.4499 7.8 15.0565C7.8 13.6637 7.70445 12.6963 7.5942 12.0446C7.46872 11.2982 6.80407 10.8566 6.04912 10.9357C4.94662 11.051 3.82522 11.2904 2.97157 11.5035C2.08747 11.7241 1.5 12.5297 1.5 13.439ZM1.5 13.439V11.9137C1.5 6.12769 6.20085 1.4375 12 1.4375C17.7991 1.4375 22.5 6.12769 22.5 11.9137V13.439M22.5 13.439V16.6751C22.5 17.5839 21.9125 18.389 21.0284 18.6095C20.1748 18.8227 19.0534 19.0626 17.9509 19.1779C17.1959 19.2565 16.5318 18.8149 16.4058 18.0685C16.2961 17.4174 16.2 16.4499 16.2 15.0565C16.2 13.6637 16.2955 12.6963 16.4058 12.0446C16.5313 11.2982 17.1959 10.8566 17.9509 10.9357C19.0534 11.051 20.1748 11.2904 21.0284 11.5035C21.9125 11.7241 22.5 12.5297 22.5 13.439ZM19.3269 11.1348C19.0277 7.46655 15.8619 4.58036 12 4.58036C8.1381 4.58036 4.97235 7.46655 4.6731 11.1348" stroke="#555555" stroke-width="1.3" stroke-linecap="round" stroke-linejoin="round"/>
</g>
<defs>
<clipPath id="clip0_3084_11578">
<rect width="24" height="24" fill="white"/>
</clipPath>
</defs>
</svg>
