<svg width="20" height="20" viewBox="0 0 20 20" fill="none" xmlns="http://www.w3.org/2000/svg">
<path d="M9.58333 12.5H5.83333C4.94928 12.5 4.10143 12.8512 3.47631 13.4763C2.85119 14.1014 2.5 14.9493 2.5 15.8333V17.5" stroke="black" stroke-width="1.2" stroke-linecap="round" stroke-linejoin="round"/>
<path d="M17.8158 13.855C18.1478 13.5231 18.3343 13.0728 18.3343 12.6034C18.3343 12.1339 18.1478 11.6837 17.8158 11.3517C17.4838 11.0197 17.0336 10.8333 16.5641 10.8333C16.0947 10.8333 15.6444 11.0197 15.3125 11.3517L11.9708 14.695C11.7727 14.8931 11.6276 15.1378 11.5491 15.4067L10.8516 17.7984C10.8307 17.8701 10.8295 17.9461 10.848 18.0185C10.8665 18.0908 10.9042 18.1569 10.957 18.2097C11.0098 18.2625 11.0759 18.3001 11.1482 18.3187C11.2206 18.3372 11.2966 18.336 11.3683 18.315L13.76 17.6175C14.0288 17.539 14.2736 17.394 14.4716 17.1959L17.8158 13.855Z" stroke="black" stroke-width="1.2" stroke-linecap="round" stroke-linejoin="round"/>
<path d="M8.33333 9.16667C10.1743 9.16667 11.6667 7.67428 11.6667 5.83333C11.6667 3.99238 10.1743 2.5 8.33333 2.5C6.49238 2.5 5 3.99238 5 5.83333C5 7.67428 6.49238 9.16667 8.33333 9.16667Z" stroke="black" stroke-width="1.2" stroke-linecap="round" stroke-linejoin="round"/>
</svg>
