<svg width="24" height="24" viewBox="0 0 24 24" fill="none" xmlns="http://www.w3.org/2000/svg">
<path d="M20.2582 15.753V11.1723C20.2582 7.23564 20.2582 5.26917 19.0488 4.04598C17.8394 2.8237 15.8922 2.8237 11.9996 2.8237C8.10703 2.8237 6.15983 2.8237 4.9504 4.04598C3.74097 5.26825 3.74097 7.23748 3.74097 11.1723V15.754C3.74097 18.5949 3.74097 20.0163 4.4145 20.6366C4.73567 20.933 5.14126 21.1193 5.57347 21.1689C6.47916 21.2726 7.53718 20.3366 9.65231 18.4655C10.5883 17.6388 11.0554 17.2249 11.5958 17.1166C11.862 17.0616 12.1372 17.0616 12.4034 17.1166C12.9448 17.2249 13.4118 17.6388 14.3469 18.4655C16.462 20.3366 17.52 21.2726 18.4257 21.168C18.857 21.1193 19.2635 20.933 19.5847 20.6366C20.2582 20.0163 20.2582 18.5949 20.2582 15.753Z" stroke="#555555" stroke-width="1.5"/>
<path d="M14.7523 6.49417H9.24658" stroke="#555555" stroke-width="1.41176" stroke-linecap="round"/>
</svg>
