<svg width="24" height="24" viewBox="0 0 24 24" fill="none" xmlns="http://www.w3.org/2000/svg">
<g clip-path="url(#clip0_3084_11566)">
<mask id="mask0_3084_11566" style="mask-type:luminance" maskUnits="userSpaceOnUse" x="0" y="0" width="24" height="24">
<path d="M24 0H0V24H24V0Z" fill="white"/>
</mask>
<g mask="url(#mask0_3084_11566)">
<path d="M19.3401 19.23L18.1101 19.51C17.2301 19.71 16.5401 20.4 16.3401 21.28L16.0601 22.51C16.0301 22.64 15.8401 22.64 15.8101 22.51L15.5301 21.28C15.3301 20.4 14.6401 19.71 13.7601 19.51L12.5301 19.23C12.4001 19.2 12.4001 19.01 12.5301 18.98L13.7601 18.7C14.6401 18.5 15.3301 17.81 15.5301 16.93L15.8101 15.7C15.8401 15.57 16.0301 15.57 16.0601 15.7L16.3401 16.93C16.5401 17.81 17.2301 18.5 18.1101 18.7L19.3401 18.98C19.4701 19.01 19.4701 19.2 19.3401 19.23Z" stroke="#555555" stroke-width="1.5" stroke-miterlimit="10"/>
<path d="M10.6601 21.4002C9.70005 21.2602 8.78005 20.9802 7.92005 20.5802C7.63005 20.4402 7.16005 20.3802 6.85005 20.4502C6.19005 20.6102 5.08005 20.8802 4.14005 21.1002C3.24005 21.3202 2.68005 20.7602 2.90005 19.8602L3.55005 17.1602C3.63005 16.8502 3.55005 16.3702 3.42005 16.0802C2.62005 14.4002 2.30005 12.4502 2.63005 10.4002C3.27005 6.46018 6.45005 3.27018 10.3901 2.62018C16.8901 1.57018 22.4301 7.11018 21.3701 13.6102C21.2101 14.5702 20.9201 15.4802 20.5101 16.3102" stroke="#555555" stroke-width="1.5" stroke-linecap="round" stroke-linejoin="round"/>
<path d="M14.0898 6.58008C15.6298 7.18008 16.8498 8.41008 17.4298 9.96008" stroke="#555555" stroke-width="1.5" stroke-linecap="round" stroke-linejoin="round"/>
</g>
</g>
<defs>
<clipPath id="clip0_3084_11566">
<rect width="24" height="24" fill="white"/>
</clipPath>
</defs>
</svg>
