<svg width="16" height="16" viewBox="0 0 16 16" fill="none" xmlns="http://www.w3.org/2000/svg">
<path d="M16 0.792269C15.9998 0.580061 15.9155 0.376612 15.7655 0.226652C15.6133 0.0811729 15.4109 0 15.2005 0C14.99 0 14.7877 0.0811729 14.6354 0.226652L12.8018 2.06223L10.9682 0.226652C10.816 0.0811729 10.6136 0 10.4032 0C10.1927 0 9.99037 0.0811729 9.83816 0.226652C9.68843 0.376727 9.60433 0.580162 9.60433 0.792269C9.60433 1.00437 9.68843 1.20781 9.83816 1.35788L11.6718 3.19346L9.4144 5.45325L9.2305 5.32519C8.02989 4.48209 6.55725 4.12002 5.10308 4.31038C3.6489 4.50074 2.31879 5.22973 1.37511 6.35353C0.431433 7.47733 -0.0572872 8.91435 0.00535583 10.3811C0.0679979 11.8479 0.677456 13.2379 1.71351 14.277C2.74955 15.3161 4.13697 15.9287 5.60206 15.9942C7.06716 16.0596 8.50355 15.573 9.62791 14.6304C10.7523 13.6878 11.4829 12.3576 11.6758 10.9023C11.8686 9.4469 11.5097 7.97202 10.6697 6.76857L10.5418 6.58448L12.8018 4.32469L14.6354 6.16027C14.7877 6.30575 14.99 6.38692 15.2005 6.38692C15.4109 6.38692 15.6133 6.30575 15.7655 6.16027C15.9152 6.01019 15.9993 5.80676 15.9993 5.59466C15.9993 5.38255 15.9152 5.17912 15.7655 5.02904L13.9318 3.19346L15.7655 1.35788C15.9155 1.20792 15.9998 1.00448 16 0.792269ZM5.8724 14.399C5.02901 14.399 4.20457 14.1487 3.50331 13.6796C2.80206 13.2106 2.2555 12.5439 1.93275 11.7638C1.61 10.9838 1.52555 10.1255 1.69009 9.29744C1.85463 8.46938 2.26076 7.70875 2.85712 7.11175C3.45349 6.51475 4.21331 6.10819 5.04049 5.94348C5.86767 5.77877 6.72507 5.8633 7.50426 6.1864C8.28345 6.50949 8.94944 7.05663 9.418 7.75863C9.88656 8.46063 10.1367 9.28596 10.1367 10.1302C10.1367 11.2624 9.68739 12.3482 8.88768 13.1487C8.08798 13.9493 7.00335 14.399 5.8724 14.399Z" fill="#FF00A6"/>
</svg>
