<svg width="10" height="13" viewBox="0 0 10 13" fill="none" xmlns="http://www.w3.org/2000/svg">
<path d="M5 6.25C5.34375 6.25 5.63802 6.1325 5.88281 5.8975C6.1276 5.6625 6.25 5.38 6.25 5.05C6.25 4.72 6.1276 4.4375 5.88281 4.2025C5.63802 3.9675 5.34375 3.85 5 3.85C4.65625 3.85 4.36198 3.9675 4.11719 4.2025C3.8724 4.4375 3.75 4.72 3.75 5.05C3.75 5.38 3.8724 5.6625 4.11719 5.8975C4.36198 6.1325 4.65625 6.25 5 6.25ZM5 12.25C3.32292 10.88 2.07031 9.6075 1.24219 8.4325C0.414062 7.2575 0 6.17 0 5.17C0 3.67 0.502604 2.475 1.50781 1.585C2.51302 0.695 3.67708 0.25 5 0.25C6.32292 0.25 7.48698 0.695 8.49219 1.585C9.4974 2.475 10 3.67 10 5.17C10 6.17 9.58594 7.2575 8.75781 8.4325C7.92969 9.6075 6.67708 10.88 5 12.25Z" fill="url(#paint0_linear_3664_15234)"/>
<defs>
<linearGradient id="paint0_linear_3664_15234" x1="5" y1="0.25" x2="5" y2="12.25" gradientUnits="userSpaceOnUse">
<stop stop-color="#FFC61B"/>
<stop offset="1" stop-color="#FF9500"/>
</linearGradient>
</defs>
</svg>
