<svg width="18" height="22" viewBox="0 0 18 22" fill="none" xmlns="http://www.w3.org/2000/svg">
<path d="M8.99759 1.9646C5.70748 1.9646 3.03366 4.63841 3.03366 7.92849V10.8011C3.03366 11.4075 2.77522 12.3319 2.46709 12.8487L1.32401 14.7472C0.618277 15.9201 1.10533 17.2223 2.39751 17.6596C6.68158 19.0909 11.3036 19.0909 15.5877 17.6596C16.7904 17.262 17.3172 15.8406 16.6612 14.7472L15.5181 12.8487C15.2199 12.3319 14.9615 11.4075 14.9615 10.8011V7.92849C14.9615 4.64835 12.2777 1.9646 8.99759 1.9646Z" stroke="#555555" stroke-width="1.5" stroke-miterlimit="10" stroke-linecap="round"/>
<path d="M10.8364 2.25242C10.5283 2.16296 10.2102 2.09338 9.88221 2.05362C8.92798 1.93434 8.01352 2.00392 7.15869 2.25242C7.44695 1.51687 8.16262 1 8.99756 1C9.83251 1 10.5482 1.51687 10.8364 2.25242Z" stroke="#555555" stroke-width="1.5" stroke-miterlimit="10" stroke-linecap="round" stroke-linejoin="round"/>
<path d="M11.9795 18.0181C11.9795 19.6581 10.6376 21 8.99756 21C8.18249 21 7.42706 20.6621 6.89033 20.1253C6.35358 19.5886 6.01562 18.8331 6.01562 18.0181" stroke="#555555" stroke-width="1.5" stroke-miterlimit="10"/>
</svg>
