<svg width="25" height="24" viewBox="0 0 25 24" fill="none" xmlns="http://www.w3.org/2000/svg">
<path d="M12.501 7.65476C11.5427 7.65476 10.6059 7.93893 9.80915 8.47132C9.01237 9.00371 8.39135 9.76042 8.02464 10.6458C7.65792 11.5311 7.56197 12.5053 7.74892 13.4452C7.93587 14.385 8.39733 15.2484 9.07493 15.926C9.75254 16.6036 10.6159 17.065 11.5557 17.252C12.4956 17.4389 13.4698 17.343 14.3551 16.9763C15.2405 16.6095 15.9972 15.9885 16.5296 15.1917C17.062 14.395 17.3461 13.4582 17.3461 12.4999C17.3448 11.2153 16.8339 9.9837 15.9255 9.07535C15.0172 8.167 13.7856 7.6561 12.501 7.65476ZM12.501 15.73C11.8621 15.73 11.2376 15.5406 10.7064 15.1856C10.1752 14.8307 9.76123 14.3262 9.51675 13.736C9.27227 13.1458 9.2083 12.4963 9.33294 11.8698C9.45757 11.2432 9.76521 10.6676 10.2169 10.2159C10.6687 9.76415 11.2442 9.45651 11.8708 9.33188C12.4974 9.20725 13.1469 9.27121 13.7371 9.51569C14.3273 9.76017 14.8318 10.1742 15.1867 10.7054C15.5416 11.2366 15.7311 11.8611 15.7311 12.4999C15.7311 13.3566 15.3908 14.1782 14.785 14.7839C14.1792 15.3897 13.3576 15.73 12.501 15.73ZM23.5984 10.4014C23.5759 10.2876 23.5292 10.1801 23.4614 10.0861C23.3937 9.99199 23.3065 9.91363 23.2057 9.85628L20.1947 8.14029L20.1826 4.74666C20.1822 4.62979 20.1565 4.51438 20.1071 4.40842C20.0578 4.30246 19.9861 4.20847 19.8969 4.13294C18.8046 3.20903 17.5468 2.501 16.1904 2.0465C16.0835 2.01034 15.9703 1.99696 15.858 2.00722C15.7457 2.01747 15.6368 2.05114 15.5383 2.10605L12.501 3.80387L9.46064 2.10302C9.36207 2.0478 9.25302 2.01388 9.14052 2.00345C9.02803 1.99302 8.91459 2.00631 8.80755 2.04246C7.45207 2.50028 6.19571 3.21101 5.10505 4.13698C5.01599 4.2124 4.94433 4.30623 4.89502 4.412C4.8457 4.51778 4.8199 4.63298 4.81939 4.74969L4.80425 8.14634L1.79319 9.86234C1.69245 9.91969 1.60524 9.99805 1.53748 10.0921C1.46973 10.1862 1.42302 10.2937 1.40053 10.4074C1.12495 11.7922 1.12495 13.2177 1.40053 14.6025C1.42302 14.7162 1.46973 14.8238 1.53748 14.9178C1.60524 15.0119 1.69245 15.0902 1.79319 15.1476L4.80425 16.8636L4.81636 20.2572C4.81673 20.3741 4.84246 20.4895 4.89178 20.5954C4.9411 20.7014 5.01283 20.7954 5.10202 20.8709C6.19427 21.7948 7.45208 22.5029 8.80856 22.9574C8.91539 22.9935 9.0286 23.0069 9.14091 22.9967C9.25322 22.9864 9.36213 22.9527 9.46064 22.8978L12.501 21.196L15.5413 22.8968C15.6616 22.9638 15.7972 22.9986 15.935 22.9977C16.0232 22.9977 16.1108 22.9834 16.1944 22.9554C17.5497 22.4981 18.8061 21.7881 19.8969 20.8629C19.986 20.7874 20.0576 20.6936 20.1069 20.5878C20.1562 20.4821 20.1821 20.3668 20.1826 20.2501L20.1977 16.8535L23.2088 15.1375C23.3095 15.0801 23.3967 15.0018 23.4645 14.9077C23.5322 14.8137 23.5789 14.7061 23.6014 14.5924C23.8755 13.2087 23.8744 11.7846 23.5984 10.4014ZM22.0843 13.9252L19.2004 15.5655C19.0741 15.6373 18.9694 15.742 18.8976 15.8683C18.839 15.9692 18.7775 16.0762 18.7149 16.1772C18.6348 16.3045 18.5921 16.4517 18.5917 16.6021L18.5766 19.8575C17.8014 20.4662 16.9379 20.953 16.0157 21.3009L13.1066 19.6798C12.9858 19.613 12.85 19.5783 12.7119 19.5789H12.6928C12.5706 19.5789 12.4475 19.5789 12.3253 19.5789C12.1809 19.5753 12.0381 19.6101 11.9115 19.6798L9.00035 21.305C8.07625 20.9597 7.21029 20.4753 6.43242 19.8686L6.42132 16.6183C6.42082 16.4676 6.37816 16.32 6.29817 16.1923C6.23559 16.0914 6.17401 15.9904 6.11648 15.8834C6.04513 15.7551 5.94052 15.6484 5.81365 15.5746L2.92675 13.9302C2.77736 12.9853 2.77736 12.0227 2.92675 11.0777L5.80558 9.43435C5.93193 9.3625 6.03655 9.25788 6.1084 9.13153C6.16695 9.03058 6.22852 8.92359 6.2911 8.82265C6.37121 8.69535 6.41389 8.54809 6.41425 8.39769L6.42939 5.14235C7.20454 4.53362 8.06812 4.04686 8.99026 3.6989L11.8953 5.32C12.0218 5.39009 12.1647 5.42495 12.3092 5.42094C12.4313 5.42094 12.5545 5.42094 12.6766 5.42094C12.8211 5.42455 12.9639 5.38972 13.0905 5.32L16.0016 3.69486C16.9257 4.04015 17.7917 4.52453 18.5695 5.13125L18.5806 8.38154C18.5811 8.53223 18.6238 8.67979 18.7038 8.80751C18.7664 8.90845 18.8279 9.00939 18.8855 9.11638C18.9568 9.24469 19.0614 9.3514 19.1883 9.42526L22.0752 11.0696C22.2266 12.0153 22.2283 12.9789 22.0802 13.9252H22.0843Z" fill="#555555"/>
</svg>
