<svg width="25" height="24" viewBox="0 0 25 24" fill="none" xmlns="http://www.w3.org/2000/svg">
<g clip-path="url(#clip0_3084_11539)">
<path d="M11.3531 13.1083C12.1677 13.9229 13.0781 14.6217 14.0844 15.2047C14.6829 15.5515 15.3069 15.8516 15.9562 16.1051C16.593 16.3537 16.8466 17.1509 16.3216 17.5887C15.9117 17.9305 15.4614 18.222 14.9708 18.463C14.0444 18.9182 13.0622 19.1458 12.024 19.1458C10.1552 19.1458 8.56997 18.495 7.26823 17.1932C5.96649 15.8915 5.31562 14.3062 5.31562 12.4375C5.31562 11.3993 5.54323 10.417 5.99844 9.49062C6.23949 9.00006 6.53093 8.5498 6.87276 8.13986C7.31054 7.61484 8.10773 7.86844 8.35633 8.50521C8.60986 9.1546 8.91 9.77856 9.25677 10.3771C9.83976 11.3833 10.5385 12.2938 11.3531 13.1083ZM18.5502 14.016C18.438 14.4901 17.9432 14.7468 17.4766 14.6068C17.4359 14.5946 17.3953 14.5823 17.3547 14.5698C17.3346 14.5636 17.3146 14.5574 17.2945 14.5511C16.8133 14.3996 16.614 13.8556 16.7078 13.3599C16.7637 13.0644 16.7917 12.7569 16.7917 12.4375C16.7917 11.1118 16.3245 9.98177 15.3901 9.0474C14.4557 8.11302 13.3257 7.64583 12 7.64583C11.6806 7.64583 11.3731 7.67378 11.0776 7.72969C10.5819 7.82348 10.0364 7.62445 9.89312 7.14066C9.88859 7.12537 9.88411 7.11008 9.87969 7.09479C9.86927 7.05881 9.85891 7.02272 9.84861 6.98651C9.71527 6.51795 9.9714 6.02346 10.4455 5.91123C10.5636 5.88326 10.6825 5.85851 10.8021 5.83698C11.2014 5.7651 11.6087 5.72917 12.024 5.72917C13.8927 5.72917 15.478 6.38003 16.7797 7.68177C18.0814 8.98351 18.7323 10.5687 18.7323 12.4375C18.7323 12.8528 18.6964 13.2601 18.6245 13.6594C18.603 13.779 18.5782 13.8978 18.5502 14.016ZM12 3.8125C11.4707 3.8125 11.0417 3.38344 11.0417 2.85417V1.89583C11.0417 1.36656 11.4707 0.9375 12 0.9375C12.5293 0.9375 12.9583 1.36656 12.9583 1.89583V2.85417C12.9583 3.38344 12.5293 3.8125 12 3.8125ZM12 23.9375C11.4707 23.9375 11.0417 23.5084 11.0417 22.9792V22.0208C11.0417 21.4916 11.4707 21.0625 12 21.0625C12.5293 21.0625 12.9583 21.4916 12.9583 22.0208V22.9792C12.9583 23.5084 12.5293 23.9375 12 23.9375ZM19.4579 6.34527C19.0836 6.71953 18.4737 6.71638 18.0994 6.34212C17.7236 5.96631 17.7222 5.35326 18.1003 4.97967L18.7794 4.30854C19.1519 3.94039 19.7522 3.94065 20.1258 4.3077C20.5057 4.68095 20.5096 5.29353 20.133 5.67013L19.4579 6.34527ZM5.22061 20.5665C4.84807 20.9346 4.24782 20.9344 3.87421 20.5673C3.49429 20.194 3.4904 19.5815 3.867 19.2049L4.54215 18.5297C4.9164 18.1555 5.52633 18.1586 5.90058 18.5329C6.2764 18.9087 6.27777 19.5217 5.89973 19.8953L5.22061 20.5665ZM21.5833 13.3958C21.0541 13.3958 20.625 12.9668 20.625 12.4375C20.625 11.9082 21.0541 11.4792 21.5833 11.4792H22.5417C23.0709 11.4792 23.5 11.9082 23.5 12.4375C23.5 12.9668 23.0709 13.3958 22.5417 13.3958H21.5833ZM1.45833 13.3958C0.92906 13.3958 0.5 12.9668 0.5 12.4375C0.5 11.9082 0.92906 11.4792 1.45833 11.4792H2.41667C2.94594 11.4792 3.375 11.9082 3.375 12.4375C3.375 12.9668 2.94594 13.3958 2.41667 13.3958H1.45833ZM20.1298 20.5633C19.7565 20.9432 19.144 20.9471 18.7674 20.5705L18.0922 19.8954C17.718 19.5211 17.7211 18.9112 18.0954 18.5369C18.4712 18.1611 19.0842 18.1597 19.4578 18.5378L20.129 19.2169C20.4971 19.5894 20.4969 20.1897 20.1298 20.5633ZM5.90462 6.33808C5.52881 6.7139 4.91576 6.71527 4.54217 6.33723L3.87104 5.65811C3.50289 5.28557 3.50315 4.68532 3.8702 4.31171C4.24345 3.93179 4.85603 3.9279 5.23263 4.3045L5.90777 4.97965C6.28203 5.3539 6.27888 5.96383 5.90462 6.33808Z" fill="#555555"/>
</g>
<defs>
<clipPath id="clip0_3084_11539">
<rect width="24" height="24" fill="white" transform="translate(0.5)"/>
</clipPath>
</defs>
</svg>
