<svg width="34" height="14" viewBox="0 0 34 14" fill="none" xmlns="http://www.w3.org/2000/svg">
<path d="M6.44724 1.86371C6.05213 2.33126 5.41994 2.70004 4.78776 2.64736C4.70873 2.01517 5.01824 1.34347 5.38043 0.928601C5.77555 0.447877 6.467 0.105443 7.02675 0.0791016C7.0926 0.737629 6.83577 1.38299 6.44724 1.86371ZM7.02016 2.77248C6.10481 2.71979 5.32116 3.29271 4.88653 3.29271C4.44532 3.29271 3.78021 2.79882 3.05583 2.81199C2.11414 2.82516 1.23829 3.35857 0.757569 4.20807C-0.230221 5.90707 0.500744 8.42264 1.45561 9.80555C1.92316 10.4904 2.48291 11.2411 3.22046 11.2148C3.9185 11.1885 4.19508 10.7604 5.038 10.7604C5.8875 10.7604 6.13115 11.2148 6.8687 11.2016C7.63259 11.1885 8.11332 10.5168 8.58087 9.83189C9.11428 9.05483 9.33159 8.29752 9.34476 8.25801C9.33159 8.24484 7.86966 7.68509 7.85649 5.99926C7.84332 4.59001 9.00891 3.91831 9.06159 3.8788C8.40307 2.90418 7.37577 2.79882 7.02016 2.77248ZM12.3081 0.862749V11.1292H13.9018V7.61924H16.1078C18.1229 7.61924 19.5388 6.23633 19.5388 4.23441C19.5388 2.23249 18.1493 0.862749 16.1605 0.862749H12.3081ZM13.9018 2.20614H15.7391C17.122 2.20614 17.9122 2.94369 17.9122 4.24099C17.9122 5.53829 17.122 6.28243 15.7325 6.28243H13.9018V2.20614ZM22.4494 11.2082C23.4504 11.2082 24.3789 10.7011 24.8004 9.89774H24.8333V11.1292H26.3084V6.01902C26.3084 4.53733 25.1231 3.58247 23.299 3.58247C21.6065 3.58247 20.3553 4.5505 20.3092 5.88072H21.7448C21.8634 5.24854 22.4495 4.83367 23.2529 4.83367C24.2275 4.83367 24.7741 5.28805 24.7741 6.12438V6.69071L22.7853 6.80925C20.9348 6.9212 19.9339 7.6785 19.9339 8.99556C19.9339 10.3258 20.9678 11.2082 22.4494 11.2082ZM22.8775 9.98993C22.028 9.98993 21.488 9.58165 21.488 8.95605C21.488 8.31069 22.0082 7.93533 23.0026 7.87606L24.7741 7.76411V8.34362C24.7741 9.30507 23.9575 9.98993 22.8775 9.98993ZM28.2774 13.9213C29.8315 13.9213 30.5625 13.3287 31.2013 11.5309L34 3.68124H32.38L30.5032 9.74628H30.4703L28.5935 3.68124H26.9274L29.6274 11.1555L29.4825 11.6099C29.2389 12.3804 28.8437 12.6767 28.1391 12.6767C28.014 12.6767 27.7703 12.6636 27.6716 12.6504V13.8818C27.7638 13.9082 28.1589 13.9213 28.2774 13.9213Z" fill="white"/>
</svg>
