<svg width="24" height="24" viewBox="0 0 24 24" fill="none" xmlns="http://www.w3.org/2000/svg">
<path d="M11.9999 0C5.55992 0 0.333252 5.22667 0.333252 11.6667C0.333252 18.1067 5.55992 23.3333 11.9999 23.3333C18.4399 23.3333 23.6666 18.1067 23.6666 11.6667C23.6666 5.22667 18.4399 0 11.9999 0ZM11.9999 21C6.85492 21 2.66659 16.8117 2.66659 11.6667C2.66659 6.52167 6.85492 2.33333 11.9999 2.33333C17.1449 2.33333 21.3333 6.52167 21.3333 11.6667C21.3333 16.8117 17.1449 21 11.9999 21ZM5.58325 18.0833L14.3449 14.0117L18.4166 5.25L9.65492 9.32167L5.58325 18.0833ZM11.9999 10.3833C12.7116 10.3833 13.2833 10.955 13.2833 11.6667C13.2833 12.3783 12.7116 12.95 11.9999 12.95C11.2883 12.95 10.7166 12.3783 10.7166 11.6667C10.7166 10.955 11.2883 10.3833 11.9999 10.3833Z" fill="#777777"/>
</svg>
