<svg width="20" height="18" viewBox="0 0 20 18" fill="none" xmlns="http://www.w3.org/2000/svg">
<path d="M13.6915 5.29196C14.0651 5.29196 14.43 5.32301 14.7899 5.36739C14.1391 2.50943 11.1374 0.347656 7.52781 0.347656C3.44225 0.347656 0.131012 3.11514 0.131012 6.52805C0.131012 8.49575 1.23812 10.2415 2.95531 11.3711L1.98015 13.3266L4.63666 12.1857C5.20632 12.3885 5.79827 12.5556 6.43053 12.6333C6.34412 12.2562 6.29503 11.8695 6.29503 11.4727C6.29503 8.06459 9.61227 5.29196 13.6915 5.29196ZM9.99339 3.12865C10.5039 3.12865 10.9179 3.54394 10.9179 4.05583C10.9179 4.5679 10.5039 4.98289 9.99339 4.98289C9.48261 4.98289 9.06878 4.5679 9.06878 4.05583C9.06878 3.5439 9.48261 3.12865 9.99339 3.12865ZM5.06216 4.98289C4.55159 4.98289 4.13759 4.5679 4.13759 4.05583C4.13759 3.54394 4.55163 3.12865 5.06216 3.12865C5.57268 3.12865 5.98677 3.54394 5.98677 4.05583C5.98672 4.5679 5.57264 4.98289 5.06216 4.98289Z" fill="#51C332"/>
<path d="M19.8555 11.4728C19.8555 8.7421 17.0951 6.52832 13.6915 6.52832C10.2878 6.52832 7.5278 8.7421 7.5278 11.4728C7.5278 14.2034 10.2878 16.4172 13.6915 16.4172C14.2513 16.4172 14.7837 16.3381 15.3003 16.2257L18.6228 17.6532L17.4737 15.3506C18.9137 14.4456 19.8555 13.0539 19.8555 11.4728ZM11.8424 11.1638C11.3319 11.1638 10.9178 10.7487 10.9178 10.2365C10.9178 9.7246 11.3319 9.30961 11.8424 9.30961C12.3531 9.30961 12.767 9.72477 12.767 10.2365C12.767 10.7487 12.353 11.1638 11.8424 11.1638ZM15.5407 11.1638C15.0299 11.1638 14.6162 10.7487 14.6162 10.2365C14.6162 9.7246 15.0299 9.30961 15.5407 9.30961C16.0514 9.30961 16.4653 9.72477 16.4653 10.2365C16.4653 10.7487 16.0514 11.1638 15.5407 11.1638Z" fill="white"/>
</svg>
